<svg width="322" height="499" viewBox="0 0 322 499" fill="none" xmlns="http://www.w3.org/2000/svg">
<path d="M195.991 463.157L185.097 473.64L178.722 468.682L177.199 469.51V480.667L178.566 481.573L185.189 476.417L195.991 486.843L200.801 484.846V465.246L195.991 463.157ZM179.289 478.032V471.954L182.235 475L179.289 478.032ZM195.077 479.328L189 475L195.077 470.658V479.328Z" fill="black"/>
<path d="M121.125 476.543C123.687 476.543 125.764 474.466 125.764 471.904C125.764 469.341 123.687 467.264 121.125 467.264C118.563 467.264 116.486 469.341 116.486 471.904C116.486 474.466 118.563 476.543 121.125 476.543Z" fill="black"/>
<path d="M121 466.5H132.308C130.269 462.25 126.028 459.493 121.125 459.493C117.156 459.493 113.619 461.316 111.335 464.205L115.563 471.566C115.775 468.716 118 466.5 121 466.5ZM119.328 484.247L123.631 476.832C122.879 477.215 122.027 477.431 121.125 477.431C118.733 477.431 116.695 475.912 115.926 473.785L110.764 464.958C109.43 466.943 108.652 469.332 108.652 471.903C108.652 478.182 113.291 483.376 119.328 484.247ZM132.705 467.25H124.132C125.649 468.25 126.653 469.952 126.653 471.896C126.653 472.852 126.41 473.755 125.983 474.54L125.986 474.544L120.297 484.347C120.57 484.365 120.846 484.376 121.125 484.376C128.013 484.376 133.597 478.785 133.597 471.896C133.597 470.256 133.281 469 132.705 467.25ZM110.912 490.206C110.717 490.299 110.282 490.444 109.729 490.444C108.486 490.444 107.678 489.601 107.678 488.341C107.678 487.073 108.546 486.145 109.891 486.145C110.334 486.145 110.725 486.256 110.929 486.366L110.759 486.937C110.58 486.843 110.299 486.741 109.891 486.741C108.946 486.741 108.435 487.448 108.435 488.299C108.435 489.252 109.048 489.839 109.865 489.839C110.291 489.839 110.572 489.737 110.785 489.643L110.912 490.206ZM111.789 484.306H112.538V486.886H112.555C112.674 486.673 112.862 486.477 113.092 486.349C113.313 486.221 113.577 486.145 113.858 486.145C114.411 486.145 115.296 486.485 115.296 487.899V490.35H114.547V487.984C114.547 487.32 114.3 486.767 113.594 486.767C113.109 486.767 112.734 487.107 112.589 487.507C112.547 487.618 112.538 487.728 112.538 487.865V490.35H111.789V484.306ZM116.514 487.516C116.514 487.03 116.505 486.613 116.48 486.23H117.135L117.169 487.047H117.195C117.382 486.494 117.842 486.145 118.344 486.145C118.421 486.145 118.48 486.154 118.548 486.162V486.869C118.472 486.852 118.395 486.852 118.293 486.852C117.765 486.852 117.391 487.243 117.288 487.805C117.271 487.908 117.263 488.035 117.263 488.154V490.35H116.514L116.514 487.516ZM122.941 488.256C122.941 489.78 121.877 490.444 120.889 490.444C119.783 490.444 118.914 489.627 118.914 488.324C118.914 486.954 119.826 486.145 120.958 486.145C122.141 486.145 122.941 487.005 122.941 488.256ZM119.681 488.299C119.681 489.201 120.192 489.882 120.924 489.882C121.639 489.882 122.175 489.21 122.175 488.282C122.175 487.584 121.826 486.707 120.941 486.707C120.064 486.707 119.681 487.524 119.681 488.299ZM123.886 487.345C123.886 486.911 123.869 486.571 123.852 486.23H124.507L124.541 486.903H124.567C124.797 486.511 125.18 486.145 125.869 486.145C126.422 486.145 126.848 486.485 127.027 486.971H127.044C127.172 486.732 127.342 486.562 127.512 486.434C127.759 486.247 128.023 486.145 128.414 486.145C128.968 486.145 129.776 486.502 129.776 487.932V490.35H129.045V488.026C129.045 487.226 128.746 486.758 128.15 486.758C127.716 486.758 127.393 487.073 127.257 487.43C127.223 487.541 127.197 487.668 127.197 487.805V490.35H126.465V487.881C126.465 487.226 126.175 486.758 125.605 486.758C125.146 486.758 124.797 487.132 124.677 487.507C124.635 487.609 124.618 487.745 124.618 487.873V490.35H123.886V487.345ZM131.402 488.426C131.419 489.439 132.058 489.857 132.815 489.857C133.352 489.857 133.683 489.763 133.956 489.644L134.092 490.18C133.829 490.299 133.369 490.444 132.713 490.444C131.445 490.444 130.687 489.601 130.687 488.359C130.687 487.116 131.419 486.145 132.619 486.145C133.973 486.145 134.322 487.32 134.322 488.078C134.322 488.231 134.314 488.342 134.296 488.427L131.402 488.426ZM133.599 487.89C133.607 487.422 133.403 486.681 132.56 486.681C131.794 486.681 131.471 487.371 131.411 487.89H133.599Z" fill="black"/>
<g clip-path="url(#clip0_9_94)">
<path d="M261.354 466.813C261.323 466.836 261.3 466.868 261.287 466.905C261.275 466.942 261.275 466.982 261.286 467.019V467.017C261.332 467.111 261.351 467.215 261.338 467.318C261.326 467.422 261.283 467.519 261.216 467.599L261.217 467.597C261.192 467.629 261.178 467.669 261.179 467.71C261.179 467.767 261.206 467.818 261.247 467.852C261.278 467.876 261.316 467.89 261.356 467.891C261.41 467.891 261.459 467.865 261.493 467.826C261.604 467.693 261.673 467.529 261.693 467.357C261.713 467.184 261.682 467.01 261.604 466.855C261.59 466.836 261.573 466.819 261.553 466.807C261.533 466.794 261.511 466.786 261.488 466.782C261.464 466.778 261.441 466.779 261.418 466.784C261.395 466.79 261.373 466.8 261.354 466.813ZM261.605 466.856L261.602 466.851L261.604 466.855L261.605 466.856Z" fill="black"/>
<path d="M254.472 459.128C245.983 458.039 238.217 464.037 237.128 472.527C236.039 481.016 242.036 488.782 250.526 489.872C259.016 490.961 266.786 484.962 267.872 476.472C268.962 467.983 262.965 460.218 254.472 459.128ZM257.664 468.796C257.376 468.799 257.101 468.915 256.898 469.119L251.146 474.87L249.919 473.643C255.588 467.991 256.611 467.937 257.664 468.796ZM251.382 475.075L257.117 469.34C257.193 469.261 257.283 469.198 257.383 469.155C257.483 469.112 257.591 469.09 257.7 469.09C257.809 469.091 257.917 469.113 258.017 469.157C258.117 469.2 258.207 469.263 258.282 469.343C258.356 469.422 258.414 469.516 258.451 469.618C258.488 469.721 258.504 469.83 258.498 469.938C258.491 470.047 258.463 470.154 258.414 470.251C258.365 470.348 258.296 470.435 258.213 470.505L258.212 470.506L252.142 475.834L251.382 475.075ZM251.809 475.971L250.388 476.278C250.382 476.279 250.377 476.28 250.371 476.28C250.357 476.28 250.342 476.276 250.33 476.268C250.318 476.261 250.308 476.25 250.301 476.237C250.293 476.222 250.289 476.205 250.292 476.188C250.294 476.171 250.302 476.155 250.314 476.143L251.147 475.31L251.809 475.971ZM248.188 475.378L249.702 473.864L250.837 474.998L248.281 475.549C248.273 475.55 248.265 475.551 248.257 475.551C248.239 475.551 248.222 475.546 248.207 475.537C248.191 475.527 248.179 475.514 248.171 475.498C248.162 475.483 248.157 475.466 248.157 475.448C248.157 475.421 248.169 475.395 248.188 475.378ZM243.479 483.202C243.454 483.2 243.431 483.189 243.415 483.171C243.398 483.153 243.389 483.129 243.39 483.105V483.095C243.392 483.072 243.402 483.051 243.418 483.035H243.421L244.643 481.813L246.221 483.392L243.479 483.202ZM246.612 481.581C246.553 481.611 246.506 481.66 246.478 481.721C246.451 481.781 246.445 481.849 246.461 481.914V481.911L246.723 483.029C246.732 483.063 246.729 483.099 246.715 483.132C246.7 483.164 246.676 483.191 246.645 483.208C246.614 483.226 246.578 483.232 246.543 483.227C246.508 483.222 246.476 483.205 246.451 483.18H246.447L244.861 481.592L249.72 476.738L252.071 476.231L253.2 477.36C251.579 478.783 249.362 480.202 246.612 481.581ZM253.43 477.153H253.427L252.343 476.069L258.413 470.741C258.468 470.692 258.519 470.638 258.564 470.58L258.567 470.577C258.377 472.314 255.946 474.768 253.43 477.153ZM259.813 469.496C259.505 469.496 259.2 469.436 258.915 469.318C258.63 469.2 258.371 469.027 258.153 468.809L258.151 468.806C257.728 468.376 257.486 467.8 257.475 467.196C257.465 466.593 257.687 466.009 258.095 465.564C258.503 465.12 259.066 464.849 259.668 464.808C260.27 464.767 260.865 464.958 261.33 465.343L261.326 465.341L259.246 467.424C259.232 467.438 259.22 467.455 259.213 467.474C259.205 467.492 259.201 467.512 259.201 467.533C259.201 467.575 259.218 467.614 259.246 467.641L260.857 469.252C260.533 469.413 260.175 469.497 259.813 469.496ZM261.485 468.809C261.38 468.912 261.266 469.004 261.142 469.085L261.135 469.09L259.574 467.531L261.554 465.551C262.408 466.481 262.377 467.917 261.485 468.809Z" fill="black"/>
</g>
<path d="M65.3333 479.33C68.0014 479.33 70.1642 477.167 70.1642 474.499C70.1642 471.831 68.0014 469.668 65.3333 469.668C62.6653 469.668 60.5024 471.831 60.5024 474.499C60.5024 477.167 62.6653 479.33 65.3333 479.33Z" fill="black"/>
<path d="M50.8333 484.169C50.8333 486.842 52.9975 489 55.6655 489C58.3335 489 60.4964 486.836 60.4964 484.169V469.668H65.3333L65.3345 469.669C68.0037 469.669 70.1667 467.504 70.1667 464.837C70.1667 462.17 68.0025 460 65.3345 460H55.6655C52.9962 460 50.8333 462.164 50.8333 464.831C50.8333 467.498 52.9975 469.662 55.6655 469.662C52.9962 469.669 50.8333 471.832 50.8333 474.5C50.8333 477.168 52.9975 479.331 55.6655 479.331C52.9962 479.331 50.8333 481.495 50.8333 484.169Z" fill="black"/>
<line x1="60.5" y1="60" x2="60.5" y2="78" stroke="black"/>
<line x1="60.5" y1="98" x2="60.5" y2="122" stroke="black"/>
<line x1="119.5" y1="183" x2="119.5" y2="363" stroke="black"/>
<line x1="188.5" y1="157" x2="188.5" y2="364" stroke="black"/>
<line x1="26" y1="261.5" x2="7" y2="261.5" stroke="black"/>
<line x1="322" y1="483.5" x2="288" y2="483.5" stroke="black"/>
<line x1="322" y1="262.5" x2="303" y2="262.5" stroke="black"/>
<line x1="204" y1="157.5" x2="188" y2="157.5" stroke="black"/>
<line x1="26" y1="483.5" x2="7" y2="483.5" stroke="black"/>
<line x1="253.5" y1="192" x2="253.5" y2="227" stroke="black"/>
<line x1="253.5" y1="60" x2="253.5" y2="122" stroke="black"/>
<line x1="7.5" y1="262" x2="7.5" y2="483" stroke="black"/>
<line x1="321.5" y1="262" x2="321.5" y2="483" stroke="black"/>
<line x1="60.5" y1="192" x2="60.5" y2="227" stroke="black"/>
<path d="M101.609 379.73H139.391V393.048H120.5V395.27H112.103V393.048H101.609V379.73ZM103.709 390.83H107.907V384.17H110.007V390.83H112.106V381.952H103.709V390.83ZM114.202 381.952V393.048H118.401V390.83H122.599V381.952H114.202ZM118.401 384.173H120.5V388.609H118.401V384.173ZM124.699 381.952V390.83H128.897V384.17H130.996V390.83H133.096V384.17H135.195V390.83H137.294V381.952H124.699Z" fill="black"/>
<path d="M192.471 384.834C191.594 384.834 190.941 385.264 190.941 386.3C190.941 387.081 191.372 387.623 192.424 387.623C193.316 387.623 193.922 387.097 193.922 386.268C193.922 385.328 193.379 384.834 192.471 384.834ZM190.718 392.15C190.511 392.404 190.304 392.675 190.304 392.994C190.304 393.631 191.116 393.823 192.233 393.823C193.157 393.823 194.416 393.758 194.416 392.899C194.416 392.388 193.81 392.357 193.045 392.309L190.718 392.15ZM195.435 384.882C195.722 385.249 196.025 385.758 196.025 386.492C196.025 388.26 194.638 389.296 192.631 389.296C192.12 389.296 191.658 389.233 191.371 389.153L190.845 389.998L192.407 390.093C195.164 390.269 196.789 390.349 196.789 392.467C196.789 394.301 195.18 395.336 192.407 395.336C189.522 395.336 188.423 394.603 188.423 393.344C188.423 392.627 188.742 392.245 189.3 391.718C188.773 391.496 188.598 391.098 188.598 390.667C188.598 390.317 188.774 389.998 189.061 389.695C189.348 389.392 189.666 389.089 190.048 388.739C189.267 388.356 188.678 387.528 188.678 386.348C188.678 384.515 189.889 383.257 192.327 383.257C193.013 383.257 193.428 383.32 193.794 383.416H196.902V384.771L195.435 384.882ZM199.705 381.986C198.797 381.986 198.271 381.46 198.271 380.551C198.271 379.644 198.797 379.149 199.705 379.149C200.63 379.149 201.156 379.643 201.156 380.551C201.156 381.46 200.63 381.986 199.705 381.986ZM197.649 391.564V390.305L198.462 390.194C198.685 390.162 198.717 390.114 198.717 389.874V385.189C198.717 385.014 198.67 384.902 198.51 384.855L197.649 384.552L197.824 383.261H201.124V389.875C201.124 390.13 201.139 390.162 201.379 390.194L202.192 390.305V391.564L197.649 391.564ZM208.494 390.945C207.808 391.279 206.805 391.583 205.896 391.583C203.999 391.583 203.282 390.818 203.282 389.017V384.841C203.282 384.746 203.282 384.682 203.155 384.682H202.039V383.264C203.442 383.104 204 382.403 204.175 380.666H205.689V382.929C205.689 383.041 205.689 383.089 205.817 383.089H208.064V384.683H205.689V388.491C205.689 389.431 205.913 389.798 206.773 389.798C207.22 389.798 207.681 389.686 208.064 389.543L208.494 390.945Z" fill="black"/>
<path d="M184.88 386.763L177.594 379.477C177.174 379.057 176.494 379.057 176.074 379.477L174.561 380.99L176.48 382.909C176.926 382.759 177.438 382.86 177.793 383.216C178.151 383.573 178.251 384.089 178.097 384.537L179.946 386.387C180.394 386.233 180.91 386.332 181.268 386.69C181.767 387.189 181.767 387.999 181.268 388.498C180.768 388.998 179.959 388.998 179.459 388.498C179.083 388.122 178.99 387.57 179.181 387.108L177.455 385.382L177.455 389.923C177.577 389.983 177.692 390.063 177.793 390.164C178.293 390.663 178.293 391.473 177.793 391.973C177.294 392.472 176.484 392.472 175.985 391.973C175.485 391.473 175.485 390.663 175.985 390.164C176.108 390.041 176.251 389.948 176.403 389.885V385.303C176.251 385.241 176.108 385.148 175.985 385.024C175.606 384.646 175.515 384.091 175.709 383.626L173.818 381.733L168.821 386.73C168.401 387.15 168.401 387.83 168.821 388.25L176.108 395.537C176.527 395.956 177.208 395.956 177.628 395.537L184.88 388.283C185.3 387.864 185.3 387.183 184.88 386.763Z" fill="black"/>
<path d="M249.1 383.1H251.575C251.713 383.1 251.85 382.962 251.85 382.825V380.762C251.85 380.625 251.713 380.487 251.575 380.487H249.1C248.963 380.487 248.825 380.625 248.825 380.762V382.962C248.825 382.962 248.963 383.1 249.1 383.1ZM252.4 386.262H254.875C255.013 386.262 255.15 386.125 255.15 385.987V383.787C255.15 383.65 255.013 383.512 254.875 383.512H252.4C252.262 383.512 252.125 383.65 252.125 383.787V385.987C252.125 386.125 252.262 386.262 252.4 386.262ZM252.4 383.1H254.875C255.013 383.1 255.15 382.962 255.15 382.825V380.762L254.875 380.487H252.4C252.262 380.487 252.125 380.625 252.125 380.762V382.962C252.125 382.962 252.262 383.1 252.4 383.1ZM255.837 386.262H258.312C258.45 386.262 258.587 386.125 258.587 385.987V383.787C258.587 383.65 258.45 383.512 258.312 383.512H255.837C255.7 383.512 255.562 383.65 255.562 383.787V385.987C255.562 386.125 255.7 386.262 255.837 386.262ZM252.4 379.937H254.875C255.013 379.937 255.15 379.8 255.15 379.662V377.6C255.15 377.462 255.013 377.325 254.875 377.325H252.4C252.262 377.325 252.125 377.462 252.125 377.6V379.8C252.125 379.937 252.262 379.937 252.4 379.937ZM242.225 386.262H244.7C244.837 386.262 244.975 386.125 244.975 385.987V383.787C244.975 383.65 244.837 383.512 244.7 383.512H242.225C242.087 383.512 241.95 383.65 241.95 383.787V385.987L242.225 386.262ZM266.975 384.887C266.287 384.475 265.463 384.2 264.775 384.337C264.363 384.337 263.95 384.337 263.675 384.475C263.4 383.237 262.712 382.137 261.75 381.587L261.338 381.312L261.062 381.725C260.65 382 260.375 382.55 260.237 383.237C259.962 384.337 260.1 385.437 260.65 386.262C259.963 386.537 259.275 386.675 258.587 386.812H240.575C240.162 386.812 239.75 387.225 239.75 387.637C239.75 389.287 240.025 390.8 240.575 392.312C241.125 393.825 242.087 395.062 243.325 395.887C245.25 396.85 247.312 397.262 249.375 397.125C250.475 397.125 251.575 396.987 252.675 396.85C254.187 396.575 255.7 396.025 257.075 395.2C258.175 394.512 259.137 393.687 260.1 392.725C261.337 391.212 262.3 389.562 262.987 387.637H263.263C264.363 387.637 265.462 387.225 266.287 386.537C266.7 386.262 266.975 385.85 267.112 385.3L267.25 385.025L266.975 384.887ZM245.663 386.262H248C248.138 386.262 248.275 386.125 248.275 385.987V383.787C248.275 383.65 248.138 383.512 248 383.512H245.663C245.525 383.512 245.387 383.65 245.387 383.787V385.987C245.387 386.125 245.525 386.262 245.663 386.262ZM245.663 383.1H248C248.138 383.1 248.275 382.962 248.275 382.825V380.762C248.275 380.625 248.138 380.487 248 380.487H245.663C245.525 380.487 245.387 380.625 245.387 380.762V382.962C245.387 382.962 245.525 383.1 245.663 383.1ZM249.1 386.262H251.575C251.713 386.262 251.85 386.125 251.85 385.987V383.787C251.85 383.65 251.713 383.512 251.575 383.512H249.1C248.963 383.512 248.825 383.65 248.825 383.787V385.987C248.825 386.125 248.963 386.262 249.1 386.262Z" fill="black"/>
<g clip-path="url(#clip1_9_94)">
<path d="M73 386.984H72.9685L67.9308 381.946L72.951 376.796V374.704L72.1938 373.948H62.6295L61.8595 374.654V375.873L59.0175 373.031V373L59 373.016L58.9837 373V373.031L57.4787 374.538L56.851 373.909H47.3742L46.6298 374.716V376.915L47.3485 377.634H48.1885V383.829L45.0315 386.985H45L45.0163 387L45 387.016H45.0315L48.1885 390.173V397.718L49.2467 398.328H51.9557L54.1222 396.107L58.9825 400.967V401L59 400.984L59.0163 401V400.967L61.9447 398.04H62.5105C62.64 398.04 62.7567 397.958 62.8022 397.831L62.9725 397.334C63.0052 397.236 62.9865 397.134 62.9293 397.055L64.635 395.35L63.921 397.639C63.8708 397.803 63.963 397.976 64.1275 398.026C64.1567 398.035 64.1882 398.04 64.2185 398.04H66.3465C66.4702 398.039 66.581 397.965 66.63 397.85L66.8225 397.39C66.8517 397.314 66.8505 397.229 66.8178 397.153C66.7863 397.078 66.7245 397.018 66.6475 396.988C66.6137 396.974 66.5752 396.966 66.5343 396.964H66.4468L67.4268 393.88H68.8642L67.6788 397.638C67.6287 397.802 67.7208 397.975 67.8842 398.025C67.9133 398.034 67.9448 398.039 67.9763 398.039H70.312C70.4403 398.039 70.5535 397.962 70.6013 397.841L70.7927 397.341C70.8522 397.18 70.7682 397.003 70.6083 396.944C70.5745 396.931 70.5383 396.924 70.5022 396.924H70.333L71.6525 392.638C71.684 392.543 71.6665 392.437 71.607 392.358L71.1695 391.771L71.166 391.765C71.1065 391.69 71.0178 391.646 70.9222 391.646H69.2468C69.164 391.646 69.0823 391.681 69.0252 391.74L68.5585 392.252H67.8305L67.7815 392.199L72.9673 387.013H73L72.9837 387L73 386.984ZM56.4777 397.662L58.3198 392.402H57.7353L58.0818 392.047H60.0173L58.1938 397.361H58.9207L58.8285 397.662H56.4777ZM60.7885 388.893L60.9635 389.07L60.6497 390.145L60.3872 390.409H59.2567L59.0455 390.198L59.4083 389.182L59.7443 388.893H60.7885ZM51.5217 397.3H49.5232L49.2175 397.126V376.606H47.7755L47.6588 376.489V375.117L47.8257 374.938H56.4252L56.6737 375.187V376.48L56.508 376.682H55.2492V386.818L65.524 376.682H63.0903L62.8862 376.463V375.106L63.0273 374.976H71.7657L71.9197 375.131V376.38L60.1422 388.458H59.707C59.6895 388.457 59.6743 388.458 59.658 388.459L59.6347 388.463C59.5822 388.475 59.5343 388.498 59.4958 388.533L59.0957 388.877L59.091 388.881C59.0525 388.917 59.0222 388.961 59.0058 389.01L58.6605 389.978L51.5217 397.3ZM68.751 392.69L69.304 392.084H70.8603L71.2208 392.569L69.745 397.36H70.3202L70.2268 397.604H68.1467L69.458 393.446H67.1072L65.8507 397.402H66.3453L66.2602 397.605H64.3877L65.6792 393.466H63.2338L61.9948 397.361H62.5035L62.4195 397.605H60.4817L62.248 392.402H61.5643L61.6705 392.085H63.5955L64.201 392.712H65.258L65.8308 392.066H67.0687L67.6392 392.69H68.751Z" fill="black"/>
</g>
<rect x="25.5" y="363.5" width="262" height="48" rx="7.5" stroke="black"/>
<rect x="29.5" y="77.5" width="61" height="21" rx="7.5" stroke="black"/>
<rect x="25.5" y="450.5" width="262" height="48" rx="7.5" stroke="black"/>
<path d="M42.7152 84.7273V92H41.3871L38.223 87.4226H38.1697V92H36.6321V84.7273H37.9815L41.1207 89.3011H41.1847V84.7273H42.7152ZM46.4217 92.1065C45.8701 92.1065 45.3931 91.9893 44.9906 91.755C44.5905 91.5182 44.2815 91.1892 44.0637 90.7678C43.8459 90.344 43.737 89.8527 43.737 89.294C43.737 88.7306 43.8459 88.2382 44.0637 87.8168C44.2815 87.393 44.5905 87.0639 44.9906 86.8295C45.3931 86.5928 45.8701 86.4744 46.4217 86.4744C46.9733 86.4744 47.4492 86.5928 47.8493 86.8295C48.2517 87.0639 48.5618 87.393 48.7797 87.8168C48.9975 88.2382 49.1064 88.7306 49.1064 89.294C49.1064 89.8527 48.9975 90.344 48.7797 90.7678C48.5618 91.1892 48.2517 91.5182 47.8493 91.755C47.4492 91.9893 46.9733 92.1065 46.4217 92.1065ZM46.4288 90.9347C46.6797 90.9347 46.8893 90.8636 47.0574 90.7216C47.2254 90.5772 47.3521 90.3807 47.4373 90.1321C47.5249 89.8835 47.5687 89.6006 47.5687 89.2834C47.5687 88.9661 47.5249 88.6832 47.4373 88.4347C47.3521 88.1861 47.2254 87.9896 47.0574 87.8452C46.8893 87.7008 46.6797 87.6286 46.4288 87.6286C46.1755 87.6286 45.9624 87.7008 45.7896 87.8452C45.6191 87.9896 45.4901 88.1861 45.4025 88.4347C45.3173 88.6832 45.2747 88.9661 45.2747 89.2834C45.2747 89.6006 45.3173 89.8835 45.4025 90.1321C45.4901 90.3807 45.6191 90.5772 45.7896 90.7216C45.9624 90.8636 46.1755 90.9347 46.4288 90.9347ZM50.8482 94.0455C50.6564 94.0455 50.4765 94.0301 50.3084 93.9993C50.1427 93.9709 50.0054 93.9342 49.8965 93.8892L50.2374 92.7599C50.415 92.8144 50.5748 92.844 50.7168 92.8487C50.8612 92.8535 50.9855 92.8203 51.0897 92.7493C51.1962 92.6783 51.2826 92.5575 51.3489 92.3871L51.4377 92.1562L49.481 86.5455H51.0719L52.2012 90.5511H52.258L53.3979 86.5455H54.9995L52.8794 92.5895C52.7776 92.883 52.6391 93.1387 52.464 93.3565C52.2911 93.5767 52.0721 93.746 51.807 93.8643C51.5418 93.9851 51.2222 94.0455 50.8482 94.0455ZM57.1825 92.103C56.8345 92.103 56.5244 92.0426 56.2521 91.9219C55.9799 91.7988 55.7644 91.6177 55.6058 91.3786C55.4496 91.1371 55.3714 90.8364 55.3714 90.4766C55.3714 90.1735 55.4271 89.919 55.5384 89.7131C55.6496 89.5071 55.8011 89.3414 55.9929 89.2159C56.1847 89.0904 56.4025 88.9957 56.6463 88.9318C56.8925 88.8679 57.1506 88.8229 57.4205 88.7969C57.7377 88.7637 57.9934 88.733 58.1875 88.7045C58.3816 88.6738 58.5225 88.6288 58.6101 88.5696C58.6977 88.5104 58.7415 88.4228 58.7415 88.3068V88.2855C58.7415 88.0606 58.6705 87.8866 58.5284 87.7635C58.3887 87.6404 58.1899 87.5788 57.9318 87.5788C57.6596 87.5788 57.4429 87.6392 57.282 87.7599C57.121 87.8783 57.0144 88.0275 56.9624 88.2074L55.5632 88.0938C55.6342 87.7623 55.7739 87.4759 55.9822 87.2344C56.1906 86.9905 56.4593 86.8035 56.7884 86.6733C57.1198 86.5407 57.5033 86.4744 57.9389 86.4744C58.242 86.4744 58.532 86.5099 58.8089 86.581C59.0883 86.652 59.3357 86.7621 59.5511 86.9112C59.7689 87.0604 59.9406 87.2521 60.0661 87.4865C60.1915 87.7185 60.2543 87.9967 60.2543 88.321V92H58.8196V91.2436H58.777C58.6894 91.4141 58.5722 91.5644 58.4254 91.6946C58.2786 91.8224 58.1023 91.9231 57.8963 91.9964C57.6903 92.0675 57.4524 92.103 57.1825 92.103ZM57.6158 91.0589C57.8383 91.0589 58.0348 91.0152 58.2053 90.9276C58.3757 90.8376 58.5095 90.7169 58.6065 90.5653C58.7036 90.4138 58.7521 90.2422 58.7521 90.0504V89.4716C58.7048 89.5024 58.6397 89.5308 58.5568 89.5568C58.4763 89.5805 58.3852 89.603 58.2834 89.6243C58.1816 89.6432 58.0798 89.661 57.978 89.6776C57.8762 89.6918 57.7839 89.7048 57.701 89.7166C57.5234 89.7427 57.3684 89.7841 57.2358 89.8409C57.1032 89.8977 57.0002 89.9747 56.9268 90.0717C56.8535 90.1664 56.8168 90.2848 56.8168 90.4268C56.8168 90.6328 56.8913 90.7902 57.0405 90.8991C57.192 91.0057 57.3838 91.0589 57.6158 91.0589ZM64.9258 89.6776V86.5455H66.4386V92H64.9862V91.0092H64.9293C64.8062 91.3288 64.6014 91.5857 64.315 91.7798C64.0309 91.974 63.6841 92.071 63.2745 92.071C62.9099 92.071 62.5891 91.9882 62.3121 91.8224C62.0352 91.6567 61.8185 91.4212 61.6623 91.1158C61.5084 90.8104 61.4303 90.4446 61.4279 90.0185V86.5455H62.9407V89.7486C62.9431 90.0705 63.0295 90.325 63.1999 90.5121C63.3704 90.6991 63.5988 90.7926 63.8853 90.7926C64.0676 90.7926 64.238 90.7512 64.3967 90.6683C64.5553 90.5831 64.6831 90.4576 64.7802 90.2919C64.8796 90.1262 64.9281 89.9214 64.9258 89.6776ZM76.0746 84.7273V92H74.7464L71.5824 87.4226H71.5291V92H69.9915V84.7273H71.3409L74.4801 89.3011H74.544V84.7273H76.0746ZM77.068 85.995V84.7273H83.041V85.995H80.8145V92H79.2946V85.995H77.068Z" fill="black"/>
<path fill-rule="evenodd" clip-rule="evenodd" d="M73.125 28.9647C73.125 28.716 73.0262 28.4776 72.8504 28.3017C72.6746 28.1259 72.4361 28.0272 72.1875 28.0272H47.8125C47.5639 28.0272 47.3254 28.1259 47.1496 28.3017C46.9738 28.4776 46.875 28.716 46.875 28.9647V34.1875C46.875 34.4361 46.9738 34.6746 47.1496 34.8504C47.3254 35.0262 47.5639 35.125 47.8125 35.125H72.1875C72.4361 35.125 72.6746 35.0262 72.8504 34.8504C73.0262 34.6746 73.125 34.4361 73.125 34.1875V28.9647ZM71.25 29.9022V33.25H48.75V29.9022H71.25Z" fill="black"/>
<path fill-rule="evenodd" clip-rule="evenodd" d="M69.5756 30.6381H68.7056C68.457 30.6381 68.2185 30.7369 68.0427 30.9127C67.8669 31.0885 67.7681 31.327 67.7681 31.5756C67.7681 31.8243 67.8669 32.0627 68.0427 32.2385C68.2185 32.4144 68.457 32.5131 68.7056 32.5131H69.5756C69.8243 32.5131 70.0627 32.4144 70.2385 32.2385C70.4144 32.0627 70.5131 31.8243 70.5131 31.5756C70.5131 31.327 70.4144 31.0885 70.2385 30.9127C70.0627 30.7369 69.8243 30.6381 69.5756 30.6381ZM50.4244 32.5131H56.5181C56.7668 32.5131 57.0052 32.4144 57.181 32.2385C57.3569 32.0627 57.4556 31.8243 57.4556 31.5756C57.4556 31.327 57.3569 31.0885 57.181 30.9127C57.0052 30.7369 56.7668 30.6381 56.5181 30.6381H50.4244C50.1757 30.6381 49.9373 30.7369 49.7615 30.9127C49.5856 31.0885 49.4869 31.327 49.4869 31.5756C49.4869 31.8243 49.5856 32.0627 49.7615 32.2385C49.9373 32.4144 50.1757 32.5131 50.4244 32.5131ZM54.7097 26.4194V28.9647C54.7097 29.2133 54.8085 29.4518 54.9843 29.6276C55.1601 29.8034 55.3985 29.9022 55.6472 29.9022H64.3528C64.6015 29.9022 64.8399 29.8034 65.0157 29.6276C65.1915 29.4518 65.2903 29.2133 65.2903 28.9647V26.4194H71.25C71.7473 26.4194 72.2242 26.2218 72.5758 25.8702C72.9275 25.5186 73.125 25.0417 73.125 24.5444V10.75C73.125 10.2527 72.9275 9.77581 72.5758 9.42417C72.2242 9.07254 71.7473 8.875 71.25 8.875H48.75C48.2527 8.875 47.7758 9.07254 47.4242 9.42417C47.0725 9.77581 46.875 10.2527 46.875 10.75V24.5444C46.875 25.0417 47.0725 25.5186 47.4242 25.8702C47.7758 26.2218 48.2527 26.4194 48.75 26.4194H54.7097ZM63.4153 26.4194V28.0272H56.5847V26.4194H63.4153ZM48.75 24.5444H71.25V22.0666H48.75V24.5444ZM71.25 20.1916V10.75H48.75V20.1916H71.25Z" fill="black"/>
<path d="M69.5756 24.1769C70.0566 24.1769 70.4466 23.7869 70.4466 23.3059C70.4466 22.8249 70.0566 22.435 69.5756 22.435C69.0946 22.435 68.7047 22.8249 68.7047 23.3059C68.7047 23.7869 69.0946 24.1769 69.5756 24.1769Z" fill="black"/>
<path d="M35.7585 40.2727H38.0341L40.4375 46.1364H40.5398L42.9432 40.2727H45.2188V49H43.429V43.3196H43.3565L41.098 48.9574H39.8793L37.6207 43.2983H37.5483V49H35.7585V40.2727ZM51.4734 42.7827C51.4393 42.4389 51.293 42.1719 51.0344 41.9815C50.7759 41.7912 50.4251 41.696 49.9819 41.696C49.6808 41.696 49.4265 41.7386 49.2191 41.8239C49.0117 41.9062 48.8526 42.0213 48.7418 42.169C48.6339 42.3168 48.5799 42.4844 48.5799 42.6719C48.5742 42.8281 48.6069 42.9645 48.6779 43.081C48.7518 43.1974 48.8526 43.2983 48.9805 43.3835C49.1083 43.4659 49.256 43.5384 49.4237 43.6009C49.5913 43.6605 49.7702 43.7116 49.9606 43.7543L50.7447 43.9418C51.1254 44.027 51.4748 44.1406 51.793 44.2827C52.1112 44.4247 52.3867 44.5994 52.6197 44.8068C52.8526 45.0142 53.033 45.2585 53.1609 45.5398C53.2915 45.821 53.3583 46.1435 53.3612 46.5071C53.3583 47.0412 53.2219 47.5043 52.9521 47.8963C52.685 48.2855 52.2987 48.5881 51.793 48.804C51.2901 49.017 50.6836 49.1236 49.9734 49.1236C49.2688 49.1236 48.6552 49.0156 48.1325 48.7997C47.6126 48.5838 47.2063 48.2642 46.9137 47.8409C46.6239 47.4148 46.4719 46.8878 46.4577 46.2599H48.2433C48.2631 46.5526 48.3469 46.7969 48.4947 46.9929C48.6452 47.1861 48.8455 47.3324 49.0955 47.4318C49.3484 47.5284 49.6339 47.5767 49.9521 47.5767C50.2646 47.5767 50.5359 47.5312 50.766 47.4403C50.9989 47.3494 51.1793 47.223 51.3072 47.0611C51.435 46.8991 51.4989 46.7131 51.4989 46.5028C51.4989 46.3068 51.4407 46.142 51.3242 46.0085C51.2106 45.875 51.043 45.7614 50.8214 45.6676C50.6026 45.5739 50.3342 45.4886 50.016 45.4119L49.0657 45.1733C48.3299 44.9943 47.7489 44.7145 47.3228 44.3338C46.8967 43.9531 46.685 43.4403 46.6879 42.7955C46.685 42.267 46.8256 41.8054 47.1097 41.4105C47.3967 41.0156 47.7901 40.7074 48.2901 40.4858C48.7901 40.2642 49.3583 40.1534 49.9947 40.1534C50.6424 40.1534 51.2077 40.2642 51.6907 40.4858C52.1765 40.7074 52.5543 41.0156 52.8242 41.4105C53.0941 41.8054 53.2333 42.2628 53.2418 42.7827H51.4734ZM58.6463 43.9162V45.3565H54.6662V43.9162H58.6463ZM63.321 49H60.2273V40.2727H63.3466C64.2244 40.2727 64.9801 40.4474 65.6136 40.7969C66.2472 41.1435 66.7344 41.642 67.0753 42.2926C67.419 42.9432 67.5909 43.7216 67.5909 44.6278C67.5909 45.5369 67.419 46.3182 67.0753 46.9716C66.7344 47.625 66.2443 48.1264 65.6051 48.4759C64.9688 48.8253 64.2074 49 63.321 49ZM62.0724 47.419H63.2443C63.7898 47.419 64.2486 47.3224 64.6207 47.1293C64.9957 46.9332 65.277 46.6307 65.4645 46.2216C65.6548 45.8097 65.75 45.2784 65.75 44.6278C65.75 43.983 65.6548 43.456 65.4645 43.0469C65.277 42.6378 64.9972 42.3366 64.625 42.1435C64.2528 41.9503 63.794 41.8537 63.2486 41.8537H62.0724V47.419ZM76.9776 44.6364C76.9776 45.5881 76.7972 46.3977 76.4364 47.0653C76.0785 47.733 75.5898 48.2429 74.9705 48.5952C74.354 48.9446 73.6609 49.1193 72.891 49.1193C72.1154 49.1193 71.4194 48.9432 70.8029 48.5909C70.1864 48.2386 69.6992 47.7287 69.3413 47.0611C68.9833 46.3935 68.8043 45.5852 68.8043 44.6364C68.8043 43.6847 68.9833 42.875 69.3413 42.2074C69.6992 41.5398 70.1864 41.0312 70.8029 40.6818C71.4194 40.3295 72.1154 40.1534 72.891 40.1534C73.6609 40.1534 74.354 40.3295 74.9705 40.6818C75.5898 41.0312 76.0785 41.5398 76.4364 42.2074C76.7972 42.875 76.9776 43.6847 76.9776 44.6364ZM75.1069 44.6364C75.1069 44.0199 75.0146 43.5 74.8299 43.0767C74.6481 42.6534 74.391 42.3324 74.0586 42.1136C73.7262 41.8949 73.337 41.7855 72.891 41.7855C72.445 41.7855 72.0558 41.8949 71.7234 42.1136C71.391 42.3324 71.1325 42.6534 70.9478 43.0767C70.766 43.5 70.6751 44.0199 70.6751 44.6364C70.6751 45.2528 70.766 45.7727 70.9478 46.196C71.1325 46.6193 71.391 46.9403 71.7234 47.1591C72.0558 47.3778 72.445 47.4872 72.891 47.4872C73.337 47.4872 73.7262 47.3778 74.0586 47.1591C74.391 46.9403 74.6481 46.6193 74.8299 46.196C75.0146 45.7727 75.1069 45.2528 75.1069 44.6364ZM83.0788 42.7827C83.0447 42.4389 82.8984 42.1719 82.6399 41.9815C82.3814 41.7912 82.0305 41.696 81.5874 41.696C81.2862 41.696 81.032 41.7386 80.8246 41.8239C80.6172 41.9062 80.4581 42.0213 80.3473 42.169C80.2393 42.3168 80.1854 42.4844 80.1854 42.6719C80.1797 42.8281 80.2124 42.9645 80.2834 43.081C80.3572 43.1974 80.4581 43.2983 80.5859 43.3835C80.7138 43.4659 80.8615 43.5384 81.0291 43.6009C81.1967 43.6605 81.3757 43.7116 81.5661 43.7543L82.3501 43.9418C82.7308 44.027 83.0803 44.1406 83.3984 44.2827C83.7166 44.4247 83.9922 44.5994 84.2251 44.8068C84.4581 45.0142 84.6385 45.2585 84.7663 45.5398C84.897 45.821 84.9638 46.1435 84.9666 46.5071C84.9638 47.0412 84.8274 47.5043 84.5575 47.8963C84.2905 48.2855 83.9041 48.5881 83.3984 48.804C82.8956 49.017 82.2891 49.1236 81.5788 49.1236C80.8743 49.1236 80.2607 49.0156 79.7379 48.7997C79.218 48.5838 78.8118 48.2642 78.5192 47.8409C78.2294 47.4148 78.0774 46.8878 78.0632 46.2599H79.8487C79.8686 46.5526 79.9524 46.7969 80.1001 46.9929C80.2507 47.1861 80.451 47.3324 80.701 47.4318C80.9538 47.5284 81.2393 47.5767 81.5575 47.5767C81.87 47.5767 82.1413 47.5312 82.3714 47.4403C82.6044 47.3494 82.7848 47.223 82.9126 47.0611C83.0405 46.8991 83.1044 46.7131 83.1044 46.5028C83.1044 46.3068 83.0462 46.142 82.9297 46.0085C82.8161 45.875 82.6484 45.7614 82.4268 45.6676C82.2081 45.5739 81.9396 45.4886 81.6214 45.4119L80.6712 45.1733C79.9354 44.9943 79.3544 44.7145 78.9283 44.3338C78.5021 43.9531 78.2905 43.4403 78.2933 42.7955C78.2905 42.267 78.4311 41.8054 78.7152 41.4105C79.0021 41.0156 79.3956 40.7074 79.8956 40.4858C80.3956 40.2642 80.9638 40.1534 81.6001 40.1534C82.2479 40.1534 82.8132 40.2642 83.2962 40.4858C83.782 40.7074 84.1598 41.0156 84.4297 41.4105C84.6996 41.8054 84.8388 42.2628 84.8473 42.7827H83.0788Z" fill="black"/>
<rect x="30.5" y="0.5" width="59" height="59" rx="7.5" stroke="black"/>
<path d="M72.5 240.5L59 242.5V252.5L72.5 252.375V240.5ZM57.75 253.625L47.5 253.5V262L57.625 263.375L57.75 253.625ZM47.5 244V252.5H57.625V242.625L47.5 244ZM58.875 253.625V263.5L72.5 265.5V253.75L58.875 253.625Z" fill="black"/>
<path d="M35.723 283L33.2259 274.273H35.2415L36.6861 280.337H36.7585L38.3523 274.273H40.0781L41.6676 280.349H41.7443L43.1889 274.273H45.2045L42.7074 283H40.9091L39.2472 277.294H39.179L37.5213 283H35.723ZM46.158 283V276.455H47.9734V283H46.158ZM47.07 275.611C46.8001 275.611 46.5685 275.521 46.3754 275.342C46.185 275.161 46.0898 274.943 46.0898 274.69C46.0898 274.44 46.185 274.226 46.3754 274.047C46.5685 273.865 46.8001 273.774 47.07 273.774C47.3398 273.774 47.57 273.865 47.7603 274.047C47.9535 274.226 48.0501 274.44 48.0501 274.69C48.0501 274.943 47.9535 275.161 47.7603 275.342C47.57 275.521 47.3398 275.611 47.07 275.611ZM51.2429 279.216V283H49.4276V276.455H51.1577V277.609H51.2344C51.3793 277.229 51.6222 276.928 51.9631 276.706C52.304 276.482 52.7173 276.369 53.2031 276.369C53.6577 276.369 54.054 276.469 54.392 276.668C54.7301 276.866 54.9929 277.151 55.1804 277.52C55.3679 277.886 55.4616 278.324 55.4616 278.832V283H53.6463V279.156C53.6491 278.756 53.5469 278.443 53.3395 278.219C53.1321 277.991 52.8466 277.878 52.483 277.878C52.2386 277.878 52.0227 277.93 51.8352 278.036C51.6506 278.141 51.5057 278.294 51.4006 278.496C51.2983 278.695 51.2457 278.935 51.2429 279.216ZM59.3043 283.107C58.8072 283.107 58.3569 282.979 57.9535 282.723C57.5529 282.464 57.2347 282.085 56.9989 281.585C56.766 281.082 56.6495 280.466 56.6495 279.736C56.6495 278.986 56.7702 278.362 57.0117 277.865C57.2532 277.365 57.5742 276.991 57.9748 276.744C58.3782 276.494 58.82 276.369 59.3001 276.369C59.6665 276.369 59.9719 276.432 60.2163 276.557C60.4634 276.679 60.6623 276.832 60.8129 277.017C60.9663 277.199 61.0827 277.378 61.1623 277.554H61.2177V274.273H63.0288V283H61.239V281.952H61.1623C61.0771 282.134 60.9563 282.314 60.8001 282.493C60.6467 282.669 60.4464 282.815 60.1992 282.932C59.9549 283.048 59.6566 283.107 59.3043 283.107ZM59.8796 281.662C60.1722 281.662 60.4194 281.582 60.6211 281.423C60.8256 281.261 60.9819 281.036 61.0898 280.746C61.2006 280.456 61.256 280.116 61.256 279.727C61.256 279.338 61.2021 279 61.0941 278.713C60.9862 278.426 60.8299 278.205 60.6254 278.048C60.4208 277.892 60.1722 277.814 59.8796 277.814C59.5813 277.814 59.3299 277.895 59.1254 278.057C58.9208 278.219 58.766 278.443 58.6609 278.73C58.5558 279.017 58.5032 279.349 58.5032 279.727C58.5032 280.108 58.5558 280.445 58.6609 280.737C58.7688 281.027 58.9237 281.254 59.1254 281.419C59.3299 281.581 59.5813 281.662 59.8796 281.662ZM67.4787 283.128C66.8168 283.128 66.2443 282.987 65.7614 282.706C65.2813 282.422 64.9105 282.027 64.6491 281.521C64.3878 281.013 64.2571 280.423 64.2571 279.753C64.2571 279.077 64.3878 278.486 64.6491 277.98C64.9105 277.472 65.2813 277.077 65.7614 276.795C66.2443 276.511 66.8168 276.369 67.4787 276.369C68.1406 276.369 68.7116 276.511 69.1918 276.795C69.6747 277.077 70.0469 277.472 70.3082 277.98C70.5696 278.486 70.7003 279.077 70.7003 279.753C70.7003 280.423 70.5696 281.013 70.3082 281.521C70.0469 282.027 69.6747 282.422 69.1918 282.706C68.7116 282.987 68.1406 283.128 67.4787 283.128ZM67.4872 281.722C67.7884 281.722 68.0398 281.636 68.2415 281.466C68.4432 281.293 68.5952 281.057 68.6974 280.759C68.8026 280.46 68.8551 280.121 68.8551 279.74C68.8551 279.359 68.8026 279.02 68.6974 278.722C68.5952 278.423 68.4432 278.187 68.2415 278.014C68.0398 277.841 67.7884 277.754 67.4872 277.754C67.1832 277.754 66.9276 277.841 66.7202 278.014C66.5156 278.187 66.3608 278.423 66.2557 278.722C66.1534 279.02 66.1023 279.359 66.1023 279.74C66.1023 280.121 66.1534 280.46 66.2557 280.759C66.3608 281.057 66.5156 281.293 66.7202 281.466C66.9276 281.636 67.1832 281.722 67.4872 281.722ZM73.0078 283L71.2266 276.455H73.0632L74.0774 280.852H74.1371L75.1939 276.455H76.9964L78.0703 280.827H78.1257L79.1229 276.455H80.9553L79.1783 283H77.2564L76.1314 278.884H76.0504L74.9254 283H73.0078ZM87.3697 278.321L85.7077 278.423C85.6793 278.281 85.6183 278.153 85.5245 278.04C85.4308 277.923 85.3072 277.831 85.1538 277.763C85.0032 277.692 84.8228 277.656 84.6126 277.656C84.3313 277.656 84.0941 277.716 83.9009 277.835C83.7077 277.952 83.6112 278.108 83.6112 278.304C83.6112 278.46 83.6737 278.592 83.7987 278.7C83.9237 278.808 84.1381 278.895 84.4421 278.96L85.6268 279.199C86.2631 279.33 86.7376 279.54 87.0501 279.83C87.3626 280.119 87.5188 280.5 87.5188 280.972C87.5188 281.401 87.3924 281.777 87.1396 282.101C86.8896 282.425 86.5458 282.678 86.1083 282.859C85.6737 283.038 85.1722 283.128 84.604 283.128C83.7376 283.128 83.0472 282.947 82.533 282.587C82.0217 282.223 81.7219 281.729 81.6339 281.104L83.4194 281.01C83.4734 281.274 83.604 281.476 83.8114 281.615C84.0188 281.751 84.2844 281.82 84.6083 281.82C84.9265 281.82 85.1822 281.759 85.3754 281.636C85.5714 281.511 85.6708 281.351 85.6737 281.155C85.6708 280.99 85.6012 280.855 85.4648 280.75C85.3285 280.642 85.1183 280.56 84.8342 280.503L83.7006 280.277C83.0614 280.149 82.5856 279.928 82.2731 279.612C81.9634 279.297 81.8086 278.895 81.8086 278.406C81.8086 277.986 81.9222 277.624 82.1495 277.32C82.3796 277.016 82.7021 276.781 83.1168 276.616C83.5344 276.452 84.0231 276.369 84.5827 276.369C85.4094 276.369 86.06 276.544 86.5344 276.893C87.0117 277.243 87.2901 277.719 87.3697 278.321Z" fill="black"/>
<rect x="25.5" y="227.5" width="69" height="69" rx="7.5" stroke="black"/>
<path d="M37.5377 145.951H14.6237C13.5692 145.951 12.7142 146.806 12.7142 147.861V166.956C12.7142 168.01 13.5692 168.865 14.6237 168.865H37.5377C38.5922 168.865 39.4472 168.01 39.4472 166.956V147.861C39.4472 146.806 38.5922 145.951 37.5377 145.951ZM16.5332 159.318L20.3522 155.499L16.5332 151.68L18.4427 149.77L24.1712 155.499L18.4427 161.227L16.5332 159.318ZM31.8092 161.227H24.1712V159.318H31.8092V161.227Z" fill="black"/>
<path d="M48.6733 155.591C48.0852 155.591 47.581 155.51 47.1605 155.348C46.7429 155.189 46.4105 154.972 46.1634 154.696C45.9162 154.42 45.7557 154.111 45.6818 153.767L47.3608 153.541C47.4119 153.672 47.4929 153.794 47.6037 153.908C47.7145 154.021 47.8608 154.112 48.0426 154.18C48.2273 154.251 48.4517 154.287 48.7159 154.287C49.1108 154.287 49.4361 154.19 49.6918 153.997C49.9503 153.807 50.0795 153.487 50.0795 153.038V151.841H50.0028C49.9233 152.023 49.804 152.195 49.6449 152.357C49.4858 152.518 49.2812 152.651 49.0312 152.753C48.7812 152.855 48.483 152.906 48.1364 152.906C47.6449 152.906 47.1974 152.793 46.794 152.565C46.3935 152.335 46.0739 151.984 45.8352 151.513C45.5994 151.038 45.4815 150.439 45.4815 149.714C45.4815 148.973 45.6023 148.354 45.8438 147.857C46.0852 147.359 46.4063 146.987 46.8068 146.74C47.2102 146.493 47.652 146.369 48.1321 146.369C48.4986 146.369 48.8054 146.432 49.0526 146.557C49.2997 146.679 49.4986 146.832 49.6491 147.017C49.8026 147.199 49.9205 147.378 50.0028 147.554H50.071V146.455H51.8736V153.064C51.8736 153.621 51.7372 154.087 51.4645 154.462C51.1918 154.837 50.8139 155.118 50.331 155.305C49.8509 155.496 49.2983 155.591 48.6733 155.591ZM48.7116 151.543C49.0043 151.543 49.2514 151.47 49.4531 151.325C49.6577 151.178 49.8139 150.967 49.9219 150.695C50.0327 150.419 50.0881 150.089 50.0881 149.706C50.0881 149.322 50.0341 148.99 49.9261 148.709C49.8182 148.425 49.6619 148.205 49.4574 148.048C49.2528 147.892 49.0043 147.814 48.7116 147.814C48.4134 147.814 48.1619 147.895 47.9574 148.057C47.7528 148.216 47.598 148.437 47.4929 148.722C47.3878 149.006 47.3352 149.334 47.3352 149.706C47.3352 150.084 47.3878 150.411 47.4929 150.686C47.6009 150.959 47.7557 151.17 47.9574 151.321C48.1619 151.469 48.4134 151.543 48.7116 151.543ZM53.3182 153V146.455H55.1335V153H53.3182ZM54.2301 145.611C53.9602 145.611 53.7287 145.521 53.5355 145.342C53.3452 145.161 53.25 144.943 53.25 144.69C53.25 144.44 53.3452 144.226 53.5355 144.047C53.7287 143.865 53.9602 143.774 54.2301 143.774C54.5 143.774 54.7301 143.865 54.9205 144.047C55.1136 144.226 55.2102 144.44 55.2102 144.69C55.2102 144.943 55.1136 145.161 54.9205 145.342C54.7301 145.521 54.5 145.611 54.2301 145.611ZM60.0692 146.455V147.818H56.1275V146.455H60.0692ZM57.0224 144.886H58.8377V150.989C58.8377 151.156 58.8633 151.287 58.9144 151.381C58.9656 151.472 59.0366 151.536 59.1275 151.572C59.2212 151.609 59.3292 151.628 59.4513 151.628C59.5366 151.628 59.6218 151.621 59.707 151.607C59.7923 151.589 59.8576 151.577 59.9031 151.568L60.1886 152.919C60.0977 152.947 59.9698 152.98 59.805 153.017C59.6403 153.057 59.44 153.081 59.2042 153.089C58.7667 153.107 58.3832 153.048 58.0536 152.915C57.7269 152.781 57.4727 152.574 57.2908 152.293C57.109 152.011 57.0195 151.656 57.0224 151.227V144.886ZM61.4265 153V144.273H63.2418V147.554H63.2972C63.3768 147.378 63.4918 147.199 63.6424 147.017C63.7958 146.832 63.9947 146.679 64.239 146.557C64.4862 146.432 64.793 146.369 65.1594 146.369C65.6367 146.369 66.0771 146.494 66.4805 146.744C66.8839 146.991 67.2063 147.365 67.4478 147.865C67.6893 148.362 67.81 148.986 67.81 149.736C67.81 150.466 67.6921 151.082 67.4563 151.585C67.2234 152.085 66.9052 152.464 66.5018 152.723C66.1012 152.979 65.6523 153.107 65.1552 153.107C64.8029 153.107 64.5032 153.048 64.256 152.932C64.0117 152.815 63.8114 152.669 63.6552 152.493C63.4989 152.314 63.3796 152.134 63.2972 151.952H63.2163V153H61.4265ZM63.2035 149.727C63.2035 150.116 63.2575 150.456 63.3654 150.746C63.4734 151.036 63.6296 151.261 63.8342 151.423C64.0387 151.582 64.2873 151.662 64.5799 151.662C64.8754 151.662 65.1254 151.581 65.3299 151.419C65.5344 151.254 65.6893 151.027 65.7944 150.737C65.9023 150.445 65.9563 150.108 65.9563 149.727C65.9563 149.349 65.9038 149.017 65.7987 148.73C65.6935 148.443 65.5387 148.219 65.3342 148.057C65.1296 147.895 64.8782 147.814 64.5799 147.814C64.2844 147.814 64.0344 147.892 63.8299 148.048C63.6282 148.205 63.4734 148.426 63.3654 148.713C63.2575 149 63.2035 149.338 63.2035 149.727ZM70.8878 153.124C70.4702 153.124 70.098 153.051 69.7713 152.906C69.4446 152.759 69.1861 152.541 68.9957 152.254C68.8082 151.964 68.7145 151.604 68.7145 151.172C68.7145 150.808 68.7813 150.503 68.9148 150.256C69.0483 150.009 69.2301 149.81 69.4602 149.659C69.6903 149.509 69.9517 149.395 70.2443 149.318C70.5398 149.241 70.8494 149.188 71.1733 149.156C71.554 149.116 71.8608 149.08 72.0938 149.045C72.3267 149.009 72.4957 148.955 72.6009 148.884C72.706 148.812 72.7585 148.707 72.7585 148.568V148.543C72.7585 148.273 72.6733 148.064 72.5028 147.916C72.3352 147.768 72.0966 147.695 71.7869 147.695C71.4602 147.695 71.2003 147.767 71.0071 147.912C70.8139 148.054 70.6861 148.233 70.6236 148.449L68.9446 148.312C69.0298 147.915 69.1974 147.571 69.4474 147.281C69.6974 146.989 70.0199 146.764 70.4148 146.608C70.8125 146.449 71.2727 146.369 71.7955 146.369C72.1591 146.369 72.5071 146.412 72.8395 146.497C73.1747 146.582 73.4716 146.714 73.7301 146.893C73.9915 147.072 74.1974 147.303 74.348 147.584C74.4986 147.862 74.5739 148.196 74.5739 148.585V153H72.8523V152.092H72.8011C72.696 152.297 72.5554 152.477 72.3793 152.634C72.2031 152.787 71.9915 152.908 71.7443 152.996C71.4972 153.081 71.2116 153.124 70.8878 153.124ZM71.4077 151.871C71.6747 151.871 71.9105 151.818 72.1151 151.713C72.3196 151.605 72.4801 151.46 72.5966 151.278C72.7131 151.097 72.7713 150.891 72.7713 150.661V149.966C72.7145 150.003 72.6364 150.037 72.5369 150.068C72.4403 150.097 72.331 150.124 72.2088 150.149C72.0866 150.172 71.9645 150.193 71.8423 150.213C71.7202 150.23 71.6094 150.246 71.5099 150.26C71.2969 150.291 71.1108 150.341 70.9517 150.409C70.7926 150.477 70.669 150.57 70.581 150.686C70.4929 150.8 70.4489 150.942 70.4489 151.112C70.4489 151.359 70.5384 151.548 70.7173 151.679C70.8991 151.807 71.1293 151.871 71.4077 151.871ZM81.4283 148.321L79.7663 148.423C79.7379 148.281 79.6768 148.153 79.5831 148.04C79.4893 147.923 79.3658 147.831 79.2124 147.763C79.0618 147.692 78.8814 147.656 78.6712 147.656C78.3899 147.656 78.1527 147.716 77.9595 147.835C77.7663 147.952 77.6697 148.108 77.6697 148.304C77.6697 148.46 77.7322 148.592 77.8572 148.7C77.9822 148.808 78.1967 148.895 78.5007 148.96L79.6854 149.199C80.3217 149.33 80.7962 149.54 81.1087 149.83C81.4212 150.119 81.5774 150.5 81.5774 150.972C81.5774 151.401 81.451 151.777 81.1982 152.101C80.9482 152.425 80.6044 152.678 80.1669 152.859C79.7322 153.038 79.2308 153.128 78.6626 153.128C77.7962 153.128 77.1058 152.947 76.5916 152.587C76.0803 152.223 75.7805 151.729 75.6925 151.104L77.478 151.01C77.532 151.274 77.6626 151.476 77.87 151.615C78.0774 151.751 78.343 151.82 78.6669 151.82C78.9851 151.82 79.2408 151.759 79.4339 151.636C79.63 151.511 79.7294 151.351 79.7322 151.155C79.7294 150.99 79.6598 150.855 79.5234 150.75C79.3871 150.642 79.1768 150.56 78.8928 150.503L77.7592 150.277C77.12 150.149 76.6442 149.928 76.3317 149.612C76.022 149.297 75.8672 148.895 75.8672 148.406C75.8672 147.986 75.9808 147.624 76.2081 147.32C76.4382 147.016 76.7607 146.781 77.1754 146.616C77.593 146.452 78.0817 146.369 78.6413 146.369C79.468 146.369 80.1186 146.544 80.593 146.893C81.0703 147.243 81.3487 147.719 81.4283 148.321ZM84.5359 149.216V153H82.7205V144.273H84.4847V147.609H84.5614C84.7092 147.223 84.9478 146.92 85.2773 146.702C85.6069 146.48 86.0202 146.369 86.5174 146.369C86.9719 146.369 87.3683 146.469 87.7063 146.668C88.0472 146.864 88.3114 147.146 88.4989 147.516C88.6893 147.882 88.783 148.321 88.7802 148.832V153H86.9648V149.156C86.9677 148.753 86.8654 148.439 86.658 148.214C86.4535 147.99 86.1665 147.878 85.7972 147.878C85.5501 147.878 85.3313 147.93 85.141 148.036C84.9535 148.141 84.8058 148.294 84.6978 148.496C84.5927 148.695 84.5387 148.935 84.5359 149.216ZM45.7244 170.455V161.455H47.5142V162.554H47.5952C47.6747 162.378 47.7898 162.199 47.9403 162.017C48.0938 161.832 48.2926 161.679 48.5369 161.557C48.7841 161.432 49.0909 161.369 49.4574 161.369C49.9347 161.369 50.375 161.494 50.7784 161.744C51.1818 161.991 51.5043 162.365 51.7457 162.865C51.9872 163.362 52.108 163.986 52.108 164.736C52.108 165.466 51.9901 166.082 51.7543 166.585C51.5213 167.085 51.2031 167.464 50.7997 167.723C50.3991 167.979 49.9503 168.107 49.4531 168.107C49.1009 168.107 48.8011 168.048 48.554 167.932C48.3097 167.815 48.1094 167.669 47.9531 167.493C47.7969 167.314 47.6776 167.134 47.5952 166.952H47.5398V170.455H45.7244ZM47.5014 164.727C47.5014 165.116 47.5554 165.456 47.6634 165.746C47.7713 166.036 47.9276 166.261 48.1321 166.423C48.3366 166.582 48.5852 166.662 48.8778 166.662C49.1733 166.662 49.4233 166.581 49.6278 166.419C49.8324 166.254 49.9872 166.027 50.0923 165.737C50.2003 165.445 50.2543 165.108 50.2543 164.727C50.2543 164.349 50.2017 164.017 50.0966 163.73C49.9915 163.443 49.8366 163.219 49.6321 163.057C49.4276 162.895 49.1761 162.814 48.8778 162.814C48.5824 162.814 48.3324 162.892 48.1278 163.048C47.9261 163.205 47.7713 163.426 47.6634 163.713C47.5554 164 47.5014 164.338 47.5014 164.727ZM56.2756 168.128C55.6136 168.128 55.0412 167.987 54.5582 167.706C54.0781 167.422 53.7074 167.027 53.446 166.521C53.1847 166.013 53.054 165.423 53.054 164.753C53.054 164.077 53.1847 163.486 53.446 162.98C53.7074 162.472 54.0781 162.077 54.5582 161.795C55.0412 161.511 55.6136 161.369 56.2756 161.369C56.9375 161.369 57.5085 161.511 57.9886 161.795C58.4716 162.077 58.8438 162.472 59.1051 162.98C59.3665 163.486 59.4972 164.077 59.4972 164.753C59.4972 165.423 59.3665 166.013 59.1051 166.521C58.8438 167.027 58.4716 167.422 57.9886 167.706C57.5085 167.987 56.9375 168.128 56.2756 168.128ZM56.2841 166.722C56.5852 166.722 56.8366 166.636 57.0384 166.466C57.2401 166.293 57.392 166.057 57.4943 165.759C57.5994 165.46 57.652 165.121 57.652 164.74C57.652 164.359 57.5994 164.02 57.4943 163.722C57.392 163.423 57.2401 163.187 57.0384 163.014C56.8366 162.841 56.5852 162.754 56.2841 162.754C55.9801 162.754 55.7244 162.841 55.517 163.014C55.3125 163.187 55.1577 163.423 55.0526 163.722C54.9503 164.02 54.8991 164.359 54.8991 164.74C54.8991 165.121 54.9503 165.46 55.0526 165.759C55.1577 166.057 55.3125 166.293 55.517 166.466C55.7244 166.636 55.9801 166.722 56.2841 166.722ZM61.8047 168L60.0234 161.455H61.8601L62.8743 165.852H62.9339L63.9908 161.455H65.7933L66.8672 165.827H66.9226L67.9197 161.455H69.7521L67.9751 168H66.0533L64.9283 163.884H64.8473L63.7223 168H61.8047ZM73.5394 168.128C72.8661 168.128 72.2866 167.991 71.8008 167.719C71.3178 167.443 70.9457 167.054 70.6843 166.551C70.4229 166.045 70.2923 165.447 70.2923 164.757C70.2923 164.084 70.4229 163.493 70.6843 162.984C70.9457 162.476 71.3136 162.08 71.788 161.795C72.2653 161.511 72.8249 161.369 73.467 161.369C73.8988 161.369 74.3008 161.439 74.6729 161.578C75.0479 161.714 75.3746 161.92 75.6531 162.196C75.9343 162.472 76.1531 162.818 76.3093 163.236C76.4656 163.651 76.5437 164.136 76.5437 164.693V165.192H71.0167V164.067H74.8349C74.8349 163.805 74.7781 163.574 74.6644 163.372C74.5508 163.17 74.3931 163.013 74.1914 162.899C73.9925 162.783 73.761 162.724 73.4968 162.724C73.2212 162.724 72.9769 162.788 72.7638 162.916C72.5536 163.041 72.3888 163.21 72.2695 163.423C72.1502 163.634 72.0891 163.868 72.0863 164.126V165.196C72.0863 165.52 72.146 165.8 72.2653 166.036C72.3874 166.271 72.5593 166.453 72.7809 166.581C73.0025 166.709 73.2653 166.773 73.5692 166.773C73.771 166.773 73.9556 166.744 74.1232 166.688C74.2908 166.631 74.4343 166.545 74.5536 166.432C74.6729 166.318 74.7638 166.179 74.8263 166.014L76.5053 166.125C76.4201 166.528 76.2454 166.881 75.9812 167.182C75.7198 167.48 75.3817 167.713 74.967 167.881C74.555 168.045 74.0792 168.128 73.5394 168.128ZM77.7283 168V161.455H79.4883V162.597H79.5565C79.6758 162.19 79.8761 161.884 80.1573 161.676C80.4386 161.466 80.7624 161.361 81.1289 161.361C81.2198 161.361 81.3178 161.366 81.4229 161.378C81.5281 161.389 81.6204 161.405 81.6999 161.425V163.036C81.6147 163.01 81.4968 162.987 81.3462 162.967C81.1957 162.947 81.0579 162.938 80.9329 162.938C80.6658 162.938 80.4272 162.996 80.217 163.112C80.0096 163.226 79.8448 163.385 79.7227 163.589C79.6033 163.794 79.5437 164.03 79.5437 164.297V168H77.7283ZM88.0845 163.321L86.4226 163.423C86.3942 163.281 86.3331 163.153 86.2393 163.04C86.1456 162.923 86.022 162.831 85.8686 162.763C85.718 162.692 85.5376 162.656 85.3274 162.656C85.0462 162.656 84.8089 162.716 84.6158 162.835C84.4226 162.952 84.326 163.108 84.326 163.304C84.326 163.46 84.3885 163.592 84.5135 163.7C84.6385 163.808 84.853 163.895 85.157 163.96L86.3416 164.199C86.978 164.33 87.4524 164.54 87.7649 164.83C88.0774 165.119 88.2337 165.5 88.2337 165.972C88.2337 166.401 88.1072 166.777 87.8544 167.101C87.6044 167.425 87.2607 167.678 86.8232 167.859C86.3885 168.038 85.8871 168.128 85.3189 168.128C84.4524 168.128 83.7621 167.947 83.2479 167.587C82.7365 167.223 82.4368 166.729 82.3487 166.104L84.1342 166.01C84.1882 166.274 84.3189 166.476 84.5263 166.615C84.7337 166.751 84.9993 166.82 85.3232 166.82C85.6413 166.82 85.897 166.759 86.0902 166.636C86.2862 166.511 86.3857 166.351 86.3885 166.155C86.3857 165.99 86.3161 165.855 86.1797 165.75C86.0433 165.642 85.8331 165.56 85.549 165.503L84.4155 165.277C83.7763 165.149 83.3004 164.928 82.9879 164.612C82.6783 164.297 82.5234 163.895 82.5234 163.406C82.5234 162.986 82.6371 162.624 82.8643 162.32C83.0945 162.016 83.4169 161.781 83.8317 161.616C84.2493 161.452 84.7379 161.369 85.2976 161.369C86.1243 161.369 86.7749 161.544 87.2493 161.893C87.7266 162.243 88.005 162.719 88.0845 163.321ZM91.1921 164.216V168H89.3768V159.273H91.141V162.609H91.2177C91.3654 162.223 91.604 161.92 91.9336 161.702C92.2631 161.48 92.6765 161.369 93.1737 161.369C93.6282 161.369 94.0245 161.469 94.3626 161.668C94.7035 161.864 94.9677 162.146 95.1552 162.516C95.3455 162.882 95.4393 163.321 95.4364 163.832V168H93.6211V164.156C93.6239 163.753 93.5217 163.439 93.3143 163.214C93.1097 162.99 92.8228 162.878 92.4535 162.878C92.2063 162.878 91.9876 162.93 91.7972 163.036C91.6097 163.141 91.462 163.294 91.354 163.496C91.2489 163.695 91.195 163.935 91.1921 164.216ZM99.848 168.128C99.1747 168.128 98.5952 167.991 98.1094 167.719C97.6264 167.443 97.2543 167.054 96.9929 166.551C96.7315 166.045 96.6009 165.447 96.6009 164.757C96.6009 164.084 96.7315 163.493 96.9929 162.984C97.2543 162.476 97.6222 162.08 98.0966 161.795C98.5739 161.511 99.1335 161.369 99.7756 161.369C100.207 161.369 100.609 161.439 100.982 161.578C101.357 161.714 101.683 161.92 101.962 162.196C102.243 162.472 102.462 162.818 102.618 163.236C102.774 163.651 102.852 164.136 102.852 164.693V165.192H97.3253V164.067H101.143C101.143 163.805 101.087 163.574 100.973 163.372C100.859 163.17 100.702 163.013 100.5 162.899C100.301 162.783 100.07 162.724 99.8054 162.724C99.5298 162.724 99.2855 162.788 99.0724 162.916C98.8622 163.041 98.6974 163.21 98.5781 163.423C98.4588 163.634 98.3977 163.868 98.3949 164.126V165.196C98.3949 165.52 98.4545 165.8 98.5739 166.036C98.696 166.271 98.8679 166.453 99.0895 166.581C99.3111 166.709 99.5739 166.773 99.8778 166.773C100.08 166.773 100.264 166.744 100.432 166.688C100.599 166.631 100.743 166.545 100.862 166.432C100.982 166.318 101.072 166.179 101.135 166.014L102.814 166.125C102.729 166.528 102.554 166.881 102.29 167.182C102.028 167.48 101.69 167.713 101.276 167.881C100.864 168.045 100.388 168.128 99.848 168.128ZM105.852 159.273V168H104.037V159.273H105.852ZM109.122 159.273V168H107.306V159.273H109.122Z" fill="black"/>
<path d="M8 122.5H112C116.142 122.5 119.5 125.858 119.5 130V191.5H8C3.85786 191.5 0.5 188.142 0.5 184V130C0.5 125.858 3.85786 122.5 8 122.5Z" stroke="black"/>
<path fill-rule="evenodd" clip-rule="evenodd" d="M266.125 28.9647C266.125 28.716 266.026 28.4776 265.85 28.3017C265.675 28.1259 265.436 28.0272 265.188 28.0272H240.812C240.564 28.0272 240.325 28.1259 240.15 28.3017C239.974 28.4776 239.875 28.716 239.875 28.9647V34.1875C239.875 34.4361 239.974 34.6746 240.15 34.8504C240.325 35.0262 240.564 35.125 240.812 35.125H265.188C265.436 35.125 265.675 35.0262 265.85 34.8504C266.026 34.6746 266.125 34.4361 266.125 34.1875V28.9647ZM264.25 29.9022V33.25H241.75V29.9022H264.25Z" fill="black"/>
<path fill-rule="evenodd" clip-rule="evenodd" d="M262.576 30.6381H261.706C261.457 30.6381 261.219 30.7369 261.043 30.9127C260.867 31.0885 260.768 31.327 260.768 31.5756C260.768 31.8243 260.867 32.0627 261.043 32.2385C261.219 32.4144 261.457 32.5131 261.706 32.5131H262.576C262.824 32.5131 263.063 32.4144 263.239 32.2385C263.414 32.0627 263.513 31.8243 263.513 31.5756C263.513 31.327 263.414 31.0885 263.239 30.9127C263.063 30.7369 262.824 30.6381 262.576 30.6381ZM243.424 32.5131H249.518C249.767 32.5131 250.005 32.4144 250.181 32.2385C250.357 32.0627 250.456 31.8243 250.456 31.5756C250.456 31.327 250.357 31.0885 250.181 30.9127C250.005 30.7369 249.767 30.6381 249.518 30.6381H243.424C243.176 30.6381 242.937 30.7369 242.761 30.9127C242.586 31.0885 242.487 31.327 242.487 31.5756C242.487 31.8243 242.586 32.0627 242.761 32.2385C242.937 32.4144 243.176 32.5131 243.424 32.5131ZM247.71 26.4194V28.9647C247.71 29.2133 247.808 29.4518 247.984 29.6276C248.16 29.8034 248.399 29.9022 248.647 29.9022H257.353C257.601 29.9022 257.84 29.8034 258.016 29.6276C258.192 29.4518 258.29 29.2133 258.29 28.9647V26.4194H264.25C264.747 26.4194 265.224 26.2218 265.576 25.8702C265.927 25.5186 266.125 25.0417 266.125 24.5444V10.75C266.125 10.2527 265.927 9.77581 265.576 9.42417C265.224 9.07254 264.747 8.875 264.25 8.875H241.75C241.253 8.875 240.776 9.07254 240.424 9.42417C240.073 9.77581 239.875 10.2527 239.875 10.75V24.5444C239.875 25.0417 240.073 25.5186 240.424 25.8702C240.776 26.2218 241.253 26.4194 241.75 26.4194H247.71ZM256.415 26.4194V28.0272H249.585V26.4194H256.415ZM241.75 24.5444H264.25V22.0666H241.75V24.5444ZM264.25 20.1916V10.75H241.75V20.1916H264.25Z" fill="black"/>
<path d="M262.576 24.1769C263.057 24.1769 263.447 23.7869 263.447 23.3059C263.447 22.8249 263.057 22.435 262.576 22.435C262.095 22.435 261.705 22.8249 261.705 23.3059C261.705 23.7869 262.095 24.1769 262.576 24.1769Z" fill="black"/>
<path d="M244.149 40.2727H245.994V45.9403C245.994 46.5767 245.842 47.1335 245.538 47.6108C245.237 48.0881 244.815 48.4602 244.273 48.7273C243.73 48.9915 243.098 49.1236 242.376 49.1236C241.652 49.1236 241.018 48.9915 240.476 48.7273C239.933 48.4602 239.511 48.0881 239.21 47.6108C238.909 47.1335 238.759 46.5767 238.759 45.9403V40.2727H240.604V45.7827C240.604 46.1151 240.676 46.4105 240.821 46.669C240.969 46.9276 241.176 47.1307 241.443 47.2784C241.71 47.4261 242.021 47.5 242.376 47.5C242.734 47.5 243.045 47.4261 243.31 47.2784C243.577 47.1307 243.783 46.9276 243.928 46.669C244.075 46.4105 244.149 46.1151 244.149 45.7827V40.2727ZM254.812 40.2727V49H253.218L249.422 43.5071H249.358V49H247.512V40.2727H249.132L252.899 45.7614H252.975V40.2727H254.812ZM258.182 40.2727V49H256.337V40.2727H258.182ZM261.43 40.2727L263.19 43.2472H263.258L265.027 40.2727H267.11L264.447 44.6364L267.17 49H265.048L263.258 46.0213H263.19L261.4 49H259.287L262.018 44.6364L259.338 40.2727H261.43Z" fill="black"/>
<path d="M236.032 240.001C236.615 239.329 237.06 238.549 237.34 237.705C237.621 236.861 237.732 235.97 237.667 235.083C235.877 235.228 234.216 236.069 233.042 237.427C232.479 238.077 232.053 238.834 231.788 239.652C231.523 240.471 231.425 241.334 231.5 242.19C232.373 242.198 233.236 242.004 234.022 241.624C234.808 241.245 235.496 240.689 236.032 240.001ZM239.917 251.471C239.928 250.29 240.239 249.131 240.822 248.103C241.404 247.075 242.239 246.213 243.248 245.597C242.611 244.681 241.77 243.925 240.79 243.389C239.811 242.854 238.72 242.554 237.605 242.514C235.2 242.267 232.98 243.917 231.7 243.917C230.421 243.917 228.617 242.545 226.613 242.576C225.303 242.619 224.026 243.001 222.907 243.685C221.789 244.368 220.867 245.33 220.23 246.476C217.517 251.194 219.537 258.208 222.25 262.016C223.483 263.882 225.025 265.994 227.06 265.917C229.095 265.84 229.758 264.652 232.117 264.652C234.475 264.652 235.2 265.917 237.204 265.87C239.208 265.824 240.627 263.959 241.922 262.093C242.839 260.739 243.556 259.259 244.049 257.7C242.827 257.179 241.785 256.311 241.051 255.204C240.316 254.097 239.922 252.799 239.917 251.471Z" fill="black"/>
<g clip-path="url(#clip2_9_94)">
<path d="M275.99 242.968C276.062 242.968 276.174 242.945 276.184 242.877C276.198 242.784 276.059 242.692 275.969 242.692C275.854 242.649 275.702 242.627 275.596 242.686C275.574 242.697 275.547 242.729 275.555 242.755V242.785C275.579 242.864 275.714 242.85 275.789 242.875C275.858 242.909 275.911 242.968 275.99 242.968Z" fill="black"/>
<path d="M261.991 265.244C262.24 265.704 262.757 265.889 263.336 266.071C264.498 266.346 266.073 266.256 267.313 266.894C268.64 267.537 269.988 267.817 271.062 267.541C271.815 267.383 272.451 266.904 272.793 266.241C273.634 266.237 274.555 265.871 276.031 265.782C277.033 265.702 278.287 266.149 279.726 266.056C279.761 266.241 279.817 266.329 279.889 266.515L279.893 266.519C280.454 267.589 281.488 268.076 282.593 267.992C283.698 267.909 284.874 267.255 285.827 266.196C286.731 265.144 288.239 264.705 289.235 264.129C289.733 263.856 290.136 263.484 290.165 262.956C290.198 262.406 289.881 261.84 289.142 261.063V260.93L289.138 260.926C288.895 260.651 288.78 260.19 288.654 259.652C288.532 259.101 288.393 258.572 287.948 258.214H287.944C287.859 258.14 287.768 258.122 287.675 258.028C287.594 257.976 287.502 257.943 287.403 257.94C288.02 256.183 287.781 254.434 287.155 252.861C286.391 250.922 285.055 249.234 284.038 248.072C282.898 246.69 281.78 245.381 281.801 243.44C281.839 240.481 282.141 235.007 276.723 235C276.5 235 276.271 235.011 276.035 235.029C269.978 235.487 271.584 241.638 271.492 243.689C271.383 245.19 271.063 246.374 269.986 247.841C268.718 249.286 266.938 251.622 266.095 254.057C265.697 255.201 265.507 256.373 265.684 257.48C265.629 257.527 265.575 257.573 265.525 257.665C265.153 258.034 264.882 258.492 264.576 258.819C264.291 259.093 263.882 259.186 263.434 259.369C262.985 259.556 262.491 259.739 262.196 260.305C262.067 260.564 262.001 260.846 262.006 261.132C262.006 261.405 262.044 261.683 262.086 261.869C262.169 262.417 262.251 262.871 262.142 263.203C261.785 264.136 261.741 264.777 261.991 265.244ZM287.69 258.567L287.695 258.572C287.992 258.845 288.131 259.302 288.254 259.776C288.376 260.327 288.475 260.849 288.841 261.242C289.538 261.966 289.764 262.488 289.752 262.809L289.756 262.801V262.826L289.752 262.809C289.73 263.17 289.487 263.354 289.038 263.627C288.135 264.179 286.536 264.606 285.517 265.786C284.632 266.8 283.552 267.352 282.6 267.424C281.647 267.495 280.828 267.149 280.345 266.189L280.338 266.185C280.038 265.634 280.166 264.776 280.419 263.861C280.671 262.943 281.032 262.012 281.082 261.251C281.134 260.27 281.191 259.416 281.361 258.757C281.532 258.118 281.801 257.661 282.279 257.404L282.344 257.374V257.371C282.396 258.198 282.835 259.083 283.608 259.265C284.45 259.449 285.663 258.807 286.175 258.213L286.476 258.2C286.927 258.189 287.302 258.214 287.69 258.567ZM275.797 241.746C275.786 241.383 275.858 241.022 276.013 240.688C276.13 240.387 276.346 240.13 276.629 239.955C276.874 239.778 277.172 239.682 277.48 239.682H277.499C277.803 239.682 278.067 239.767 278.336 239.954C278.61 240.14 278.809 240.411 278.965 240.687C279.115 241.043 279.192 241.318 279.203 241.682C279.203 241.655 279.212 241.627 279.212 241.601V241.744C279.209 241.735 279.206 241.724 279.206 241.715L279.199 241.682C279.196 242.017 279.122 242.347 278.984 242.653C278.916 242.825 278.814 242.983 278.679 243.114C278.638 243.092 278.597 243.073 278.553 243.056C278.403 242.994 278.268 242.968 278.145 242.873C278.043 242.835 277.937 242.803 277.83 242.782C277.901 242.701 278.039 242.6 278.091 242.51C278.168 242.334 278.209 242.147 278.217 241.957V241.931C278.22 241.746 278.192 241.559 278.129 241.381C278.066 241.196 277.985 241.105 277.867 240.922C277.747 240.831 277.628 240.741 277.485 240.741H277.462C277.329 240.741 277.21 240.782 277.087 240.922C276.951 241.051 276.849 241.207 276.793 241.381C276.717 241.556 276.673 241.744 276.664 241.931V241.957C276.667 242.08 276.676 242.204 276.693 242.325C276.417 242.232 276.065 242.139 275.823 242.047C275.809 241.957 275.8 241.865 275.797 241.773V241.746ZM272.23 240.774C272.31 240.503 272.448 240.252 272.637 240.038C272.821 239.855 273.009 239.763 273.236 239.763H273.289C273.493 239.763 273.675 239.829 273.861 239.949C274.07 240.126 274.239 240.345 274.354 240.588C274.483 240.862 274.556 241.139 274.573 241.505V241.511C274.583 241.695 274.582 241.787 274.571 241.876V241.986C274.528 241.996 274.49 242.011 274.452 242.019C274.233 242.095 274.059 242.205 273.888 242.294C273.905 242.172 273.906 242.048 273.892 241.927V241.907C273.875 241.724 273.837 241.633 273.774 241.449C273.731 241.308 273.648 241.183 273.536 241.082C273.466 241.02 273.372 240.988 273.274 240.994H273.245C273.141 241.002 273.056 241.05 272.975 241.175C272.883 241.281 272.825 241.41 272.804 241.546C272.766 241.695 272.754 241.847 272.771 242.001V242.021C272.788 242.206 272.824 242.297 272.888 242.48C272.951 242.664 273.026 242.755 273.124 242.848C273.14 242.861 273.154 242.873 273.172 242.881C273.072 242.96 273.005 242.978 272.92 243.068C272.868 243.107 272.805 243.151 272.733 243.162C272.584 242.99 272.453 242.804 272.339 242.609C272.202 242.32 272.13 242.007 272.117 241.692C272.091 241.381 272.133 241.071 272.23 240.774ZM272.383 243.669C272.703 243.484 272.927 243.297 273.075 243.209C273.223 243.107 273.28 243.068 273.327 243.029H273.33V243.024C273.572 242.747 273.954 242.38 274.532 242.198C274.732 242.149 274.953 242.109 275.2 242.109C275.674 242.109 276.248 242.198 276.941 242.657C277.36 242.932 277.69 243.027 278.449 243.301H278.454C278.819 243.488 279.035 243.667 279.139 243.849V243.668C279.244 243.87 279.251 244.105 279.162 244.314C278.986 244.742 278.423 245.2 277.638 245.473V245.476C277.254 245.662 276.919 245.934 276.527 246.115C276.132 246.301 275.684 246.517 275.076 246.483C274.858 246.494 274.639 246.462 274.435 246.39C274.277 246.308 274.122 246.217 273.973 246.118C273.694 245.933 273.453 245.662 273.096 245.479V245.472H273.089C272.516 245.134 272.206 244.768 272.106 244.496C272.008 244.126 272.099 243.851 272.383 243.669ZM267.921 253.908C268.272 252.436 269.172 251.006 269.747 250.108C269.9 250.019 269.799 250.294 269.162 251.448C268.594 252.48 267.527 254.881 268.988 256.747C269.041 255.387 269.357 254.045 269.914 252.792C270.722 251.035 272.412 247.974 272.545 245.549C272.614 245.598 272.855 245.735 272.958 245.827C273.272 246.01 273.502 246.285 273.804 246.466C274.106 246.742 274.487 246.927 275.059 246.927C275.115 246.931 275.167 246.935 275.218 246.935C275.807 246.935 276.262 246.751 276.646 246.566C277.061 246.382 277.393 246.107 277.707 246.016H277.714C278.383 245.831 278.913 245.464 279.212 245.054C279.726 247.002 280.927 249.832 281.699 251.204C282.109 251.939 282.925 253.485 283.279 255.362C283.503 255.355 283.751 255.387 284.014 255.45C284.939 253.153 283.232 250.683 282.454 249.997C282.137 249.721 282.121 249.536 282.279 249.536C283.123 250.271 284.235 251.698 284.637 253.327C284.823 254.063 284.866 254.845 284.667 255.624C284.764 255.662 284.861 255.707 284.96 255.716C286.439 256.45 286.985 257.005 286.723 257.829V257.77C286.635 257.766 286.551 257.77 286.464 257.77H286.442C286.659 257.128 286.182 256.636 284.917 256.087C283.605 255.537 282.558 255.625 282.379 256.726C282.369 256.785 282.362 256.817 282.355 256.912C282.257 256.944 282.155 256.985 282.056 257C281.44 257.368 281.107 257.92 280.92 258.632C280.733 259.365 280.676 260.222 280.627 261.202V261.206C280.597 261.665 280.382 262.358 280.169 263.064C278.02 264.538 275.04 265.178 272.504 263.523C272.345 263.258 272.151 263.009 271.927 262.79C271.821 262.618 271.686 262.464 271.533 262.331C271.794 262.331 272.018 262.291 272.199 262.239C272.407 262.147 272.567 261.98 272.65 261.779C272.804 261.412 272.65 260.821 272.155 260.18C271.661 259.538 270.821 258.812 269.592 258.089C268.69 257.54 268.18 256.893 267.945 256.169C267.705 255.435 267.737 254.678 267.921 253.908ZM262.61 263.274V263.27L262.613 263.266C262.78 262.807 262.655 262.23 262.574 261.727C262.495 261.176 262.455 260.752 262.635 260.435C262.865 259.975 263.203 259.886 263.623 259.702C264.046 259.516 264.541 259.424 264.936 259.057H264.939V259.053C265.306 258.684 265.576 258.226 265.896 257.901C266.168 257.624 266.44 257.439 266.847 257.439H266.861C266.938 257.439 267.011 257.445 267.086 257.458C267.625 257.533 268.098 257.916 268.553 258.492L269.857 260.78L269.862 260.784C270.21 261.517 270.943 262.247 271.566 263.036C272.188 263.858 272.669 264.591 272.61 265.195V265.203C272.528 266.226 271.923 266.782 270.998 266.982C270.074 267.168 268.819 266.985 267.565 266.344C266.178 265.607 264.531 265.7 263.471 265.517C262.943 265.426 262.596 265.24 262.435 264.965C262.274 264.69 262.271 264.138 262.61 263.274Z" fill="black"/>
<path d="M274.327 242.968C274.403 242.968 274.459 242.909 274.527 242.875C274.603 242.851 274.736 242.864 274.765 242.784H274.76V242.755C274.769 242.728 274.745 242.699 274.718 242.686C274.61 242.629 274.463 242.651 274.347 242.693C274.258 242.693 274.119 242.785 274.131 242.876C274.14 242.943 274.255 242.968 274.327 242.968ZM273.14 245.057C273.583 245.33 274.197 245.698 274.973 245.698C275.751 245.698 276.48 245.24 277.104 244.962C277.432 244.779 277.833 244.505 278.092 244.32C278.352 244.046 278.488 243.884 278.304 243.862C278.117 243.862 278.128 244.042 277.904 244.23C277.614 244.413 277.255 244.687 276.976 244.873C276.482 245.146 275.667 245.513 274.973 245.513C274.276 245.513 273.719 245.146 273.303 244.871C273.09 244.687 272.92 244.504 272.783 244.413C272.682 244.324 272.654 244.16 272.498 244.138C272.397 244.138 272.369 244.413 272.604 244.598C272.737 244.688 272.917 244.873 273.14 245.057Z" fill="black"/>
</g>
<path d="M217.263 283H215.286L218.298 274.273H220.676L223.685 283H221.707L219.521 276.267H219.453L217.263 283ZM217.139 279.57H221.81V281.01H217.139V279.57ZM224.701 285.455V276.455H226.491V277.554H226.572C226.651 277.378 226.766 277.199 226.917 277.017C227.07 276.832 227.269 276.679 227.513 276.557C227.761 276.432 228.067 276.369 228.434 276.369C228.911 276.369 229.352 276.494 229.755 276.744C230.158 276.991 230.481 277.365 230.722 277.865C230.964 278.362 231.085 278.986 231.085 279.736C231.085 280.466 230.967 281.082 230.731 281.585C230.498 282.085 230.18 282.464 229.776 282.723C229.376 282.979 228.927 283.107 228.43 283.107C228.077 283.107 227.778 283.048 227.531 282.932C227.286 282.815 227.086 282.669 226.93 282.493C226.773 282.314 226.654 282.134 226.572 281.952H226.516V285.455H224.701ZM226.478 279.727C226.478 280.116 226.532 280.456 226.64 280.746C226.748 281.036 226.904 281.261 227.109 281.423C227.313 281.582 227.562 281.662 227.854 281.662C228.15 281.662 228.4 281.581 228.604 281.419C228.809 281.254 228.964 281.027 229.069 280.737C229.177 280.445 229.231 280.108 229.231 279.727C229.231 279.349 229.178 279.017 229.073 278.73C228.968 278.443 228.813 278.219 228.609 278.057C228.404 277.895 228.153 277.814 227.854 277.814C227.559 277.814 227.309 277.892 227.104 278.048C226.903 278.205 226.748 278.426 226.64 278.713C226.532 279 226.478 279.338 226.478 279.727ZM232.295 285.455V276.455H234.085V277.554H234.165C234.245 277.378 234.36 277.199 234.511 277.017C234.664 276.832 234.863 276.679 235.107 276.557C235.354 276.432 235.661 276.369 236.028 276.369C236.505 276.369 236.945 276.494 237.349 276.744C237.752 276.991 238.075 277.365 238.316 277.865C238.558 278.362 238.678 278.986 238.678 279.736C238.678 280.466 238.56 281.082 238.325 281.585C238.092 282.085 237.773 282.464 237.37 282.723C236.969 282.979 236.521 283.107 236.023 283.107C235.671 283.107 235.371 283.048 235.124 282.932C234.88 282.815 234.68 282.669 234.523 282.493C234.367 282.314 234.248 282.134 234.165 281.952H234.11V285.455H232.295ZM234.072 279.727C234.072 280.116 234.126 280.456 234.234 280.746C234.342 281.036 234.498 281.261 234.702 281.423C234.907 281.582 235.156 281.662 235.448 281.662C235.744 281.662 235.994 281.581 236.198 281.419C236.403 281.254 236.558 281.027 236.663 280.737C236.771 280.445 236.825 280.108 236.825 279.727C236.825 279.349 236.772 279.017 236.667 278.73C236.562 278.443 236.407 278.219 236.202 278.057C235.998 277.895 235.746 277.814 235.448 277.814C235.153 277.814 234.903 277.892 234.698 278.048C234.496 278.205 234.342 278.426 234.234 278.713C234.126 279 234.072 279.338 234.072 279.727ZM241.704 274.273V283H239.888V274.273H241.704ZM246.141 283.128C245.468 283.128 244.888 282.991 244.402 282.719C243.919 282.443 243.547 282.054 243.286 281.551C243.025 281.045 242.894 280.447 242.894 279.757C242.894 279.084 243.025 278.493 243.286 277.984C243.547 277.476 243.915 277.08 244.39 276.795C244.867 276.511 245.426 276.369 246.069 276.369C246.5 276.369 246.902 276.439 247.275 276.578C247.65 276.714 247.976 276.92 248.255 277.196C248.536 277.472 248.755 277.818 248.911 278.236C249.067 278.651 249.145 279.136 249.145 279.693V280.192H243.618V279.067H247.436C247.436 278.805 247.38 278.574 247.266 278.372C247.152 278.17 246.995 278.013 246.793 277.899C246.594 277.783 246.363 277.724 246.098 277.724C245.823 277.724 245.578 277.788 245.365 277.916C245.155 278.041 244.99 278.21 244.871 278.423C244.752 278.634 244.691 278.868 244.688 279.126V280.196C244.688 280.52 244.748 280.8 244.867 281.036C244.989 281.271 245.161 281.453 245.382 281.581C245.604 281.709 245.867 281.773 246.171 281.773C246.373 281.773 246.557 281.744 246.725 281.688C246.892 281.631 247.036 281.545 247.155 281.432C247.275 281.318 247.365 281.179 247.428 281.014L249.107 281.125C249.022 281.528 248.847 281.881 248.583 282.182C248.321 282.48 247.983 282.713 247.569 282.881C247.157 283.045 246.681 283.128 246.141 283.128ZM261.473 283V274.273H263.319V281.479H267.06V283H261.473ZM268.248 283V276.455H270.063V283H268.248ZM269.16 275.611C268.89 275.611 268.658 275.521 268.465 275.342C268.275 275.161 268.18 274.943 268.18 274.69C268.18 274.44 268.275 274.226 268.465 274.047C268.658 273.865 268.89 273.774 269.16 273.774C269.43 273.774 269.66 273.865 269.85 274.047C270.043 274.226 270.14 274.44 270.14 274.69C270.14 274.943 270.043 275.161 269.85 275.342C269.66 275.521 269.43 275.611 269.16 275.611ZM273.333 279.216V283H271.517V276.455H273.248V277.609H273.324C273.469 277.229 273.712 276.928 274.053 276.706C274.394 276.482 274.807 276.369 275.293 276.369C275.748 276.369 276.144 276.469 276.482 276.668C276.82 276.866 277.083 277.151 277.27 277.52C277.458 277.886 277.551 278.324 277.551 278.832V283H275.736V279.156C275.739 278.756 275.637 278.443 275.429 278.219C275.222 277.991 274.936 277.878 274.573 277.878C274.328 277.878 274.113 277.93 273.925 278.036C273.74 278.141 273.596 278.294 273.49 278.496C273.388 278.695 273.336 278.935 273.333 279.216ZM283.18 280.213V276.455H284.995V283H283.252V281.811H283.184C283.036 282.195 282.79 282.503 282.447 282.736C282.106 282.969 281.69 283.085 281.198 283.085C280.761 283.085 280.376 282.986 280.043 282.787C279.711 282.588 279.451 282.305 279.263 281.939C279.079 281.572 278.985 281.134 278.982 280.622V276.455H280.798V280.298C280.8 280.685 280.904 280.99 281.109 281.214C281.313 281.439 281.587 281.551 281.931 281.551C282.15 281.551 282.354 281.501 282.545 281.402C282.735 281.3 282.888 281.149 283.005 280.95C283.124 280.751 283.183 280.506 283.18 280.213ZM287.964 276.455L289.166 278.743L290.397 276.455H292.26L290.363 279.727L292.311 283H290.457L289.166 280.737L287.896 283H286.021L287.964 279.727L286.089 276.455H287.964Z" fill="black"/>
<rect x="203.5" y="227.5" width="99" height="69" rx="7.5" stroke="black"/>
<path d="M250.538 145.951H227.624C226.569 145.951 225.714 146.806 225.714 147.861V166.956C225.714 168.01 226.569 168.865 227.624 168.865H250.538C251.592 168.865 252.447 168.01 252.447 166.956V147.861C252.447 146.806 251.592 145.951 250.538 145.951ZM229.533 159.318L233.352 155.499L229.533 151.68L231.443 149.77L237.171 155.499L231.443 161.227L229.533 159.318ZM244.809 161.227H237.171V159.318H244.809V161.227Z" fill="black"/>
<path d="M257.759 146V137.273H259.574V140.554H259.629C259.709 140.378 259.824 140.199 259.974 140.017C260.128 139.832 260.327 139.679 260.571 139.557C260.818 139.432 261.125 139.369 261.491 139.369C261.969 139.369 262.409 139.494 262.812 139.744C263.216 139.991 263.538 140.365 263.78 140.865C264.021 141.362 264.142 141.986 264.142 142.736C264.142 143.466 264.024 144.082 263.788 144.585C263.555 145.085 263.237 145.464 262.834 145.723C262.433 145.979 261.984 146.107 261.487 146.107C261.135 146.107 260.835 146.048 260.588 145.932C260.344 145.815 260.143 145.669 259.987 145.493C259.831 145.314 259.712 145.134 259.629 144.952H259.548V146H257.759ZM259.536 142.727C259.536 143.116 259.589 143.456 259.697 143.746C259.805 144.036 259.962 144.261 260.166 144.423C260.371 144.582 260.619 144.662 260.912 144.662C261.207 144.662 261.457 144.581 261.662 144.419C261.866 144.254 262.021 144.027 262.126 143.737C262.234 143.445 262.288 143.108 262.288 142.727C262.288 142.349 262.236 142.017 262.131 141.73C262.026 141.443 261.871 141.219 261.666 141.057C261.462 140.895 261.21 140.814 260.912 140.814C260.616 140.814 260.366 140.892 260.162 141.048C259.96 141.205 259.805 141.426 259.697 141.713C259.589 142 259.536 142.338 259.536 142.727ZM267.22 146.124C266.802 146.124 266.43 146.051 266.103 145.906C265.777 145.759 265.518 145.541 265.328 145.254C265.14 144.964 265.047 144.604 265.047 144.172C265.047 143.808 265.113 143.503 265.247 143.256C265.38 143.009 265.562 142.81 265.792 142.659C266.022 142.509 266.284 142.395 266.576 142.318C266.872 142.241 267.181 142.188 267.505 142.156C267.886 142.116 268.193 142.08 268.426 142.045C268.659 142.009 268.828 141.955 268.933 141.884C269.038 141.812 269.091 141.707 269.091 141.568V141.543C269.091 141.273 269.005 141.064 268.835 140.916C268.667 140.768 268.429 140.695 268.119 140.695C267.792 140.695 267.532 140.767 267.339 140.912C267.146 141.054 267.018 141.233 266.956 141.449L265.277 141.312C265.362 140.915 265.529 140.571 265.779 140.281C266.029 139.989 266.352 139.764 266.747 139.608C267.145 139.449 267.605 139.369 268.127 139.369C268.491 139.369 268.839 139.412 269.172 139.497C269.507 139.582 269.804 139.714 270.062 139.893C270.324 140.072 270.529 140.303 270.68 140.584C270.831 140.862 270.906 141.196 270.906 141.585V146H269.184V145.092H269.133C269.028 145.297 268.887 145.477 268.711 145.634C268.535 145.787 268.324 145.908 268.076 145.996C267.829 146.081 267.544 146.124 267.22 146.124ZM267.74 144.871C268.007 144.871 268.243 144.818 268.447 144.713C268.652 144.605 268.812 144.46 268.929 144.278C269.045 144.097 269.103 143.891 269.103 143.661V142.966C269.047 143.003 268.968 143.037 268.869 143.068C268.772 143.097 268.663 143.124 268.541 143.149C268.419 143.172 268.297 143.193 268.174 143.213C268.052 143.23 267.941 143.246 267.842 143.26C267.629 143.291 267.443 143.341 267.284 143.409C267.125 143.477 267.001 143.57 266.913 143.686C266.825 143.8 266.781 143.942 266.781 144.112C266.781 144.359 266.87 144.548 267.049 144.679C267.231 144.807 267.461 144.871 267.74 144.871ZM277.76 141.321L276.098 141.423C276.07 141.281 276.009 141.153 275.915 141.04C275.821 140.923 275.698 140.831 275.544 140.763C275.394 140.692 275.213 140.656 275.003 140.656C274.722 140.656 274.485 140.716 274.292 140.835C274.098 140.952 274.002 141.108 274.002 141.304C274.002 141.46 274.064 141.592 274.189 141.7C274.314 141.808 274.529 141.895 274.833 141.96L276.017 142.199C276.654 142.33 277.128 142.54 277.441 142.83C277.753 143.119 277.909 143.5 277.909 143.972C277.909 144.401 277.783 144.777 277.53 145.101C277.28 145.425 276.936 145.678 276.499 145.859C276.064 146.038 275.563 146.128 274.995 146.128C274.128 146.128 273.438 145.947 272.924 145.587C272.412 145.223 272.113 144.729 272.025 144.104L273.81 144.01C273.864 144.274 273.995 144.476 274.202 144.615C274.409 144.751 274.675 144.82 274.999 144.82C275.317 144.82 275.573 144.759 275.766 144.636C275.962 144.511 276.061 144.351 276.064 144.155C276.061 143.99 275.992 143.855 275.855 143.75C275.719 143.642 275.509 143.56 275.225 143.503L274.091 143.277C273.452 143.149 272.976 142.928 272.664 142.612C272.354 142.297 272.199 141.895 272.199 141.406C272.199 140.986 272.313 140.624 272.54 140.32C272.77 140.016 273.093 139.781 273.507 139.616C273.925 139.452 274.414 139.369 274.973 139.369C275.8 139.369 276.451 139.544 276.925 139.893C277.402 140.243 277.681 140.719 277.76 141.321ZM280.868 142.216V146H279.053V137.273H280.817V140.609H280.893C281.041 140.223 281.28 139.92 281.609 139.702C281.939 139.48 282.352 139.369 282.849 139.369C283.304 139.369 283.7 139.469 284.038 139.668C284.379 139.864 284.643 140.146 284.831 140.516C285.021 140.882 285.115 141.321 285.112 141.832V146H283.297V142.156C283.3 141.753 283.197 141.439 282.99 141.214C282.786 140.99 282.499 140.878 282.129 140.878C281.882 140.878 281.663 140.93 281.473 141.036C281.286 141.141 281.138 141.294 281.03 141.496C280.925 141.695 280.871 141.935 280.868 142.216ZM257.69 161V159.918L260.895 155.95V155.903H257.801V154.455H263.081V155.635L260.072 159.504V159.551H263.192V161H257.69ZM270.026 156.321L268.364 156.423C268.336 156.281 268.275 156.153 268.181 156.04C268.087 155.923 267.963 155.831 267.81 155.763C267.659 155.692 267.479 155.656 267.269 155.656C266.988 155.656 266.75 155.716 266.557 155.835C266.364 155.952 266.267 156.108 266.267 156.304C266.267 156.46 266.33 156.592 266.455 156.7C266.58 156.808 266.794 156.895 267.098 156.96L268.283 157.199C268.919 157.33 269.394 157.54 269.706 157.83C270.019 158.119 270.175 158.5 270.175 158.972C270.175 159.401 270.049 159.777 269.796 160.101C269.546 160.425 269.202 160.678 268.765 160.859C268.33 161.038 267.828 161.128 267.26 161.128C266.394 161.128 265.703 160.947 265.189 160.587C264.678 160.223 264.378 159.729 264.29 159.104L266.076 159.01C266.13 159.274 266.26 159.476 266.468 159.615C266.675 159.751 266.941 159.82 267.265 159.82C267.583 159.82 267.838 159.759 268.032 159.636C268.228 159.511 268.327 159.351 268.33 159.155C268.327 158.99 268.257 158.855 268.121 158.75C267.985 158.642 267.775 158.56 267.49 158.503L266.357 158.277C265.718 158.149 265.242 157.928 264.929 157.612C264.62 157.297 264.465 156.895 264.465 156.406C264.465 155.986 264.578 155.624 264.806 155.32C265.036 155.016 265.358 154.781 265.773 154.616C266.191 154.452 266.679 154.369 267.239 154.369C268.066 154.369 268.716 154.544 269.191 154.893C269.668 155.243 269.946 155.719 270.026 156.321ZM273.134 157.216V161H271.318V152.273H273.082V155.609H273.159C273.307 155.223 273.545 154.92 273.875 154.702C274.205 154.48 274.618 154.369 275.115 154.369C275.57 154.369 275.966 154.469 276.304 154.668C276.645 154.864 276.909 155.146 277.097 155.516C277.287 155.882 277.381 156.321 277.378 156.832V161H275.562V157.156C275.565 156.753 275.463 156.439 275.256 156.214C275.051 155.99 274.764 155.878 274.395 155.878C274.148 155.878 273.929 155.93 273.739 156.036C273.551 156.141 273.403 156.294 273.295 156.496C273.19 156.695 273.136 156.935 273.134 157.216ZM260.136 176.107C259.639 176.107 259.189 175.979 258.786 175.723C258.385 175.464 258.067 175.085 257.831 174.585C257.598 174.082 257.482 173.466 257.482 172.736C257.482 171.986 257.602 171.362 257.844 170.865C258.085 170.365 258.406 169.991 258.807 169.744C259.21 169.494 259.652 169.369 260.132 169.369C260.499 169.369 260.804 169.432 261.048 169.557C261.295 169.679 261.494 169.832 261.645 170.017C261.798 170.199 261.915 170.378 261.994 170.554H262.05V167.273H263.861V176H262.071V174.952H261.994C261.909 175.134 261.788 175.314 261.632 175.493C261.479 175.669 261.278 175.815 261.031 175.932C260.787 176.048 260.489 176.107 260.136 176.107ZM260.712 174.662C261.004 174.662 261.251 174.582 261.453 174.423C261.658 174.261 261.814 174.036 261.922 173.746C262.033 173.456 262.088 173.116 262.088 172.727C262.088 172.338 262.034 172 261.926 171.713C261.818 171.426 261.662 171.205 261.457 171.048C261.253 170.892 261.004 170.814 260.712 170.814C260.413 170.814 260.162 170.895 259.957 171.057C259.753 171.219 259.598 171.443 259.493 171.73C259.388 172.017 259.335 172.349 259.335 172.727C259.335 173.108 259.388 173.445 259.493 173.737C259.601 174.027 259.756 174.254 259.957 174.419C260.162 174.581 260.413 174.662 260.712 174.662ZM267.22 176.124C266.802 176.124 266.43 176.051 266.103 175.906C265.777 175.759 265.518 175.541 265.328 175.254C265.14 174.964 265.047 174.604 265.047 174.172C265.047 173.808 265.113 173.503 265.247 173.256C265.38 173.009 265.562 172.81 265.792 172.659C266.022 172.509 266.284 172.395 266.576 172.318C266.872 172.241 267.181 172.188 267.505 172.156C267.886 172.116 268.193 172.08 268.426 172.045C268.659 172.009 268.828 171.955 268.933 171.884C269.038 171.812 269.091 171.707 269.091 171.568V171.543C269.091 171.273 269.005 171.064 268.835 170.916C268.667 170.768 268.429 170.695 268.119 170.695C267.792 170.695 267.532 170.767 267.339 170.912C267.146 171.054 267.018 171.233 266.956 171.449L265.277 171.312C265.362 170.915 265.529 170.571 265.779 170.281C266.029 169.989 266.352 169.764 266.747 169.608C267.145 169.449 267.605 169.369 268.127 169.369C268.491 169.369 268.839 169.412 269.172 169.497C269.507 169.582 269.804 169.714 270.062 169.893C270.324 170.072 270.529 170.303 270.68 170.584C270.831 170.862 270.906 171.196 270.906 171.585V176H269.184V175.092H269.133C269.028 175.297 268.887 175.477 268.711 175.634C268.535 175.787 268.324 175.908 268.076 175.996C267.829 176.081 267.544 176.124 267.22 176.124ZM267.74 174.871C268.007 174.871 268.243 174.818 268.447 174.713C268.652 174.605 268.812 174.46 268.929 174.278C269.045 174.097 269.103 173.891 269.103 173.661V172.966C269.047 173.003 268.968 173.037 268.869 173.068C268.772 173.097 268.663 173.124 268.541 173.149C268.419 173.172 268.297 173.193 268.174 173.213C268.052 173.23 267.941 173.246 267.842 173.26C267.629 173.291 267.443 173.341 267.284 173.409C267.125 173.477 267.001 173.57 266.913 173.686C266.825 173.8 266.781 173.942 266.781 174.112C266.781 174.359 266.87 174.548 267.049 174.679C267.231 174.807 267.461 174.871 267.74 174.871ZM277.76 171.321L276.098 171.423C276.07 171.281 276.009 171.153 275.915 171.04C275.821 170.923 275.698 170.831 275.544 170.763C275.394 170.692 275.213 170.656 275.003 170.656C274.722 170.656 274.485 170.716 274.292 170.835C274.098 170.952 274.002 171.108 274.002 171.304C274.002 171.46 274.064 171.592 274.189 171.7C274.314 171.808 274.529 171.895 274.833 171.96L276.017 172.199C276.654 172.33 277.128 172.54 277.441 172.83C277.753 173.119 277.909 173.5 277.909 173.972C277.909 174.401 277.783 174.777 277.53 175.101C277.28 175.425 276.936 175.678 276.499 175.859C276.064 176.038 275.563 176.128 274.995 176.128C274.128 176.128 273.438 175.947 272.924 175.587C272.412 175.223 272.113 174.729 272.025 174.104L273.81 174.01C273.864 174.274 273.995 174.476 274.202 174.615C274.409 174.751 274.675 174.82 274.999 174.82C275.317 174.82 275.573 174.759 275.766 174.636C275.962 174.511 276.061 174.351 276.064 174.155C276.061 173.99 275.992 173.855 275.855 173.75C275.719 173.642 275.509 173.56 275.225 173.503L274.091 173.277C273.452 173.149 272.976 172.928 272.664 172.612C272.354 172.297 272.199 171.895 272.199 171.406C272.199 170.986 272.313 170.624 272.54 170.32C272.77 170.016 273.093 169.781 273.507 169.616C273.925 169.452 274.414 169.369 274.973 169.369C275.8 169.369 276.451 169.544 276.925 169.893C277.402 170.243 277.681 170.719 277.76 171.321ZM280.868 172.216V176H279.053V167.273H280.817V170.609H280.893C281.041 170.223 281.28 169.92 281.609 169.702C281.939 169.48 282.352 169.369 282.849 169.369C283.304 169.369 283.7 169.469 284.038 169.668C284.379 169.864 284.643 170.146 284.831 170.516C285.021 170.882 285.115 171.321 285.112 171.832V176H283.297V172.156C283.3 171.753 283.197 171.439 282.99 171.214C282.786 170.99 282.499 170.878 282.129 170.878C281.882 170.878 281.663 170.93 281.473 171.036C281.286 171.141 281.138 171.294 281.03 171.496C280.925 171.695 280.871 171.935 280.868 172.216Z" fill="black"/>
<rect x="203.5" y="122.5" width="99" height="69" rx="7.5" stroke="black"/>
<rect x="223.5" y="0.5" width="59" height="59" rx="7.5" stroke="black"/>
<defs>
<clipPath id="clip0_9_94">
<rect width="31" height="31" fill="white" transform="translate(237 459)"/>
</clipPath>
<clipPath id="clip1_9_94">
<rect width="28" height="28" fill="white" transform="translate(45 373)"/>
</clipPath>
<clipPath id="clip2_9_94">
<rect width="34" height="33" fill="white" transform="translate(259 235)"/>
</clipPath>
</defs>
</svg>
